<svg width="696" height="322" viewBox="0 0 696 322" fill="none" xmlns="http://www.w3.org/2000/svg">
<mask id="mask0_398_133477" style="mask-type:luminance" maskUnits="userSpaceOnUse" x="1" y="170" width="577" height="151">
<path d="M577.599 211.53L485.81 320.529C447.116 320.529 428.87 296.193 402.417 296.193C375.963 296.193 347.366 320.529 314.642 320.529C281.918 320.529 253.477 286.195 214.375 286.195C175.274 286.195 131.597 320.529 84.3455 320.529C37.094 320.529 1.25293 283.329 1.25293 237.441C1.25293 218.366 9.25001 201.151 22.0776 188.979C34.0531 177.609 50.2401 170.634 68.0598 170.634C76.4381 170.634 84.3679 172.563 91.4231 176.003L52.8909 212.786L52.9088 212.808C47.8585 217.724 44.7233 224.591 44.7233 232.193C44.7233 251.125 60.0716 266.474 79.0036 266.474C90.2928 266.474 100.55 262.069 108.157 254.88C108.283 254.763 108.408 254.642 108.534 254.521L156.203 209.108C162.585 210.687 169.263 211.53 176.135 211.53C223.386 211.53 267.067 177.219 306.165 177.219C345.262 177.219 373.712 211.557 406.431 211.557C439.15 211.557 467.753 187.216 494.206 187.216C520.66 187.216 538.91 211.53 577.599 211.53Z" fill="white"/>
</mask>
<g mask="url(#mask0_398_133477)">
<path d="M494.986 309.634C456.297 309.634 438.047 285.293 411.593 285.293C385.14 285.293 356.542 309.634 323.818 309.634C291.094 309.634 262.654 275.296 223.552 275.296C184.454 275.296 140.773 309.634 93.5173 309.634C47.6294 309.634 10.4248 272.434 10.4248 226.542C10.4248 189.647 40.3365 159.735 77.2316 159.735" stroke="#E6E6E6" stroke-width="2.08" stroke-miterlimit="10"/>
<path d="M504.168 298.736C465.479 298.736 447.228 274.394 420.775 274.394C394.321 274.394 365.724 298.736 333 298.736C300.276 298.736 271.835 264.397 232.733 264.397C193.636 264.397 149.955 298.736 102.699 298.736C56.8111 298.736 19.6064 261.535 19.6064 215.643C19.6064 178.748 49.5181 148.836 86.4133 148.836" stroke="#E6E6E6" stroke-width="2.08" stroke-miterlimit="10"/>
<path d="M513.344 287.841C474.654 287.841 456.404 263.5 429.951 263.5C403.497 263.5 374.899 287.841 342.176 287.841C309.452 287.841 281.011 253.502 241.909 253.502C202.812 253.502 159.131 287.841 111.875 287.841C65.9868 287.841 28.7822 250.641 28.7822 204.748C28.7822 167.853 58.6939 137.942 95.589 137.942" stroke="#E6E6E6" stroke-width="2.08" stroke-miterlimit="10"/>
<path d="M522.525 276.942C483.836 276.942 465.586 252.601 439.132 252.601C412.679 252.601 384.081 276.942 351.357 276.942C318.633 276.942 290.193 242.604 251.091 242.604C211.993 242.604 168.312 276.942 121.056 276.942C75.1685 276.942 37.9639 239.742 37.9639 193.85C37.9639 156.954 67.8756 127.043 104.771 127.043" stroke="#E6E6E6" stroke-width="2.08" stroke-miterlimit="10"/>
<path d="M531.702 266.043C493.013 266.043 474.763 241.702 448.309 241.702C421.855 241.702 393.258 266.043 360.534 266.043C327.81 266.043 299.369 231.704 260.268 231.704C221.17 231.704 177.489 266.043 130.233 266.043C84.3452 266.043 47.1406 228.843 47.1406 182.95C47.1406 146.055 77.0523 116.144 113.947 116.144" stroke="#E6E6E6" stroke-width="2.08" stroke-miterlimit="10"/>
<path d="M540.883 255.149C502.194 255.149 483.943 230.808 457.49 230.808C431.036 230.808 402.439 255.149 369.715 255.149C336.991 255.149 308.55 220.81 269.448 220.81C230.351 220.81 186.67 255.149 139.414 255.149C93.5259 255.149 56.3213 217.949 56.3213 172.056C56.3213 135.161 86.233 105.249 123.128 105.249" stroke="#E6E6E6" stroke-width="2.08" stroke-miterlimit="10"/>
<path d="M550.059 244.249C511.37 244.249 493.12 219.908 466.666 219.908C440.213 219.908 411.615 244.249 378.891 244.249C346.167 244.249 317.727 209.911 278.625 209.911C239.528 209.911 195.846 244.249 148.591 244.249C102.703 244.249 65.498 207.049 65.498 161.157C65.498 124.262 95.4097 94.3501 132.305 94.3501" stroke="#E6E6E6" stroke-width="2.08" stroke-miterlimit="10"/>
<path d="M559.241 233.351C520.552 233.351 502.302 209.009 475.848 209.009C449.394 209.009 420.797 233.351 388.073 233.351C355.349 233.351 326.909 199.012 287.807 199.012C248.709 199.012 205.028 233.351 157.772 233.351C111.884 233.351 74.6797 196.15 74.6797 150.258C74.6797 113.363 104.591 83.4512 141.487 83.4512" stroke="#E6E6E6" stroke-width="2.08" stroke-miterlimit="10"/>
<path d="M568.418 222.456C529.729 222.456 511.478 198.115 485.025 198.115C458.571 198.115 429.974 222.456 397.25 222.456C364.526 222.456 336.085 188.117 296.983 188.117C257.886 188.117 214.205 222.456 166.949 222.456C121.061 222.456 83.8564 185.256 83.8564 139.363C83.8564 102.468 113.768 72.5566 150.663 72.5566" stroke="#E6E6E6" stroke-width="2.08" stroke-miterlimit="10"/>
</g>
<path d="M485.809 320.534C447.12 320.534 428.87 296.193 402.416 296.193C375.963 296.193 347.365 320.534 314.641 320.534C281.917 320.534 253.477 286.195 214.375 286.195C175.278 286.195 131.596 320.534 84.3406 320.534C38.4526 320.534 1.24805 283.334 1.24805 237.441C1.24805 200.546 31.1597 170.634 68.0549 170.634" stroke="#E6E6E6" stroke-width="2.08" stroke-miterlimit="10"/>
<path d="M87.7988 212.046L109.96 190.93" stroke="#349D98" stroke-width="2.08" stroke-miterlimit="10"/>
<path d="M108.157 254.879L221.856 146.567C230.495 138.798 235.926 127.532 235.926 115C235.926 85.5144 212.02 61.6084 182.535 61.6084C164.083 61.6084 147.375 69.0897 135.288 81.1862L22.0771 188.979" stroke="#349D98" stroke-width="2.08" stroke-miterlimit="10"/>
<path d="M52.8906 212.786L91.4408 175.99" stroke="#349D98" stroke-width="2.08" stroke-miterlimit="10"/>
<mask id="mask1_398_133477" style="mask-type:luminance" maskUnits="userSpaceOnUse" x="44" y="190" width="78" height="77">
<path d="M121.496 224.026C121.496 236.069 116.481 246.941 108.426 254.664L108.202 254.879C100.599 262.069 90.3415 266.474 79.0478 266.474C60.1159 266.474 44.7676 251.125 44.7676 232.193C44.7676 224.717 47.7996 217.953 52.7019 213.06L52.7153 213.046L53.4016 212.382C58.2276 207.897 64.7042 205.152 71.8132 205.152C78.1239 205.152 83.8156 207.798 87.8388 212.046L110.005 190.93C117.199 200.026 121.496 211.526 121.496 224.026Z" fill="white"/>
</mask>
<g mask="url(#mask1_398_133477)">
<path d="M120.437 185.897C127.631 194.993 131.928 206.493 131.928 218.994C131.928 231.494 126.914 241.908 118.858 249.632L118.634 249.847C111.032 257.037 100.774 261.441 89.4805 261.441C70.5485 261.441 55.2002 246.093 55.2002 227.161C55.2002 219.684 58.2322 212.921 63.1345 208.027L63.1479 208.014L63.8342 207.35C68.6602 202.865 75.1368 200.12 82.2459 200.12" stroke="#E6E6E6" stroke-width="2.08" stroke-miterlimit="10"/>
<path d="M130.87 180.865C138.064 189.961 142.361 201.461 142.361 213.961C142.361 226.461 137.346 236.876 129.291 244.599L129.067 244.815C121.464 252.005 111.207 256.409 99.9131 256.409C80.9811 256.409 65.6328 241.061 65.6328 222.129C65.6328 214.652 68.6648 207.888 73.5671 202.995L73.5806 202.981L74.2668 202.318C79.0929 197.832 85.5695 195.088 92.6785 195.088" stroke="#E6E6E6" stroke-width="2.08" stroke-miterlimit="10"/>
<path d="M141.302 175.833C148.497 184.928 152.793 196.428 152.793 208.929C152.793 221.429 147.779 231.844 139.724 239.567L139.499 239.782C131.897 246.972 121.639 251.376 110.346 251.376C91.4137 251.376 76.0654 236.028 76.0654 217.096C76.0654 209.619 79.0974 202.856 83.9997 197.962L84.0132 197.949L84.6994 197.285C89.5255 192.8 96.0021 190.055 103.111 190.055C109.422 190.055 115.113 192.701 119.137 196.949" stroke="#E6E6E6" stroke-width="2.08" stroke-miterlimit="10"/>
<path d="M151.735 170.805C158.929 179.901 163.226 191.401 163.226 203.901C163.226 216.401 158.212 226.816 150.156 234.539L149.932 234.754C142.33 241.944 132.072 246.349 120.778 246.349C101.846 246.349 86.498 231 86.498 212.068C86.498 204.592 89.53 197.828 94.4323 192.935L94.4458 192.921L95.132 192.257C99.9581 187.772 106.435 185.027 113.544 185.027C119.854 185.027 125.546 187.673 129.569 191.921" stroke="#E6E6E6" stroke-width="2.08" stroke-miterlimit="10"/>
<path d="M162.168 165.772C169.362 174.868 173.659 186.368 173.659 198.869C173.659 211.369 168.644 221.783 160.589 229.507L160.365 229.722C152.762 236.912 142.505 241.316 131.211 241.316C112.279 241.316 96.9307 225.968 96.9307 207.036C96.9307 199.559 99.9626 192.796 104.865 187.902L104.878 187.889L105.565 187.225C110.391 182.74 116.867 179.995 123.976 179.995C130.287 179.995 135.979 182.641 140.002 186.889" stroke="#E6E6E6" stroke-width="2.08" stroke-miterlimit="10"/>
<path d="M172.6 160.74C179.795 169.836 184.091 181.336 184.091 193.836C184.091 206.336 179.077 216.751 171.021 224.474L170.797 224.69C163.195 231.88 152.937 236.284 141.644 236.284C122.712 236.284 107.363 220.936 107.363 202.004C107.363 194.527 110.395 187.763 115.298 182.87L115.311 182.856L115.997 182.193C120.823 177.707 127.3 174.963 134.409 174.963C140.72 174.963 146.411 177.609 150.435 181.856" stroke="#E6E6E6" stroke-width="2.08" stroke-miterlimit="10"/>
</g>
<path d="M87.7985 212.046C83.7753 207.798 78.0836 205.152 71.7729 205.152C56.8372 205.152 44.7272 217.262 44.7272 232.198C44.7272 251.13 60.0755 266.478 79.0075 266.478C102.452 266.478 121.455 247.474 121.455 224.03C121.455 194.545 97.5493 170.639 68.0637 170.639C31.1685 170.639 1.25684 200.55 1.25684 237.445C1.25684 283.333 38.457 320.538 84.3494 320.538C131.601 320.538 175.282 286.199 214.384 286.199C253.481 286.199 281.926 320.538 314.65 320.538C347.374 320.538 375.972 296.197 402.425 296.197C428.879 296.197 447.129 320.538 485.818 320.538L577.608 211.539C538.918 211.539 520.668 187.225 494.214 187.225C467.761 187.225 439.163 211.566 406.439 211.566C373.716 211.566 345.275 177.227 306.173 177.227C267.076 177.227 223.395 211.539 176.139 211.539C169.173 211.539 162.41 210.673 155.946 209.054" stroke="#349D98" stroke-width="2.08" stroke-miterlimit="10"/>
<path d="M395.114 234.952L351.814 286.383" stroke="#349D98" stroke-width="2.08" stroke-miterlimit="10"/>
<path d="M172.304 231.014L129.004 282.445" stroke="#349D98" stroke-width="2.08" stroke-miterlimit="10"/>
<path d="M427.758 179.456C428.525 178.977 429.287 178.506 430.054 178.048" stroke="#349D98" stroke-width="2.08" stroke-miterlimit="10"/>
<path d="M434.701 175.42C453.436 165.404 472.475 162.081 491.246 162.081C529.711 162.081 550.688 188.337 581.533 188.337C628.928 188.337 662.212 143.274 662.212 111.039C662.212 88.8782 646.711 63.501 616.122 59.0427C592.499 55.5981 579.882 71.063 579.882 85.4784C579.882 99.8938 599.186 114.628 625.819 111.712C658.202 108.164 700.323 72.2785 692.922 23.5918" stroke="#349D98" stroke-width="2.08" stroke-miterlimit="10" stroke-dasharray="11.9 11.9"/>
<path d="M692.478 20.9591C692.316 20.0845 692.132 19.2054 691.939 18.3218" stroke="#349D98" stroke-width="2.08" stroke-miterlimit="10"/>
<path d="M690.009 14.7639C691.147 14.226 691.317 12.1996 690.389 10.238C689.461 8.27633 687.787 7.12223 686.65 7.6602C685.512 8.19817 685.342 10.2245 686.27 12.1861C687.197 14.1478 688.871 15.3019 690.009 14.7639Z" stroke="#349D98" stroke-width="2.08" stroke-miterlimit="10"/>
<path d="M688.388 7.79957C688.267 5.66911 689.392 1.33642 692.213 1.46649C695.035 1.60104 695.142 7.89824 691.563 9.91658C691.666 9.91658 695.411 11.4012 694.64 13.3522C693.869 15.3033 691.438 14.5273 690.81 14.0743" stroke="#349D98" stroke-width="2.08" stroke-miterlimit="10"/>
<path d="M685.705 9.06885C684.136 7.62462 680.072 5.74533 678.386 8.00587C676.699 10.2664 681.498 14.3524 685.329 12.8633C685.266 12.9441 684.032 16.7789 686.033 17.4203C688.033 18.0617 688.975 15.6935 689.02 14.9175" stroke="#349D98" stroke-width="2.08" stroke-miterlimit="10"/>
</svg>
