<svg width="202" height="28" viewBox="0 0 202 28" fill="none" xmlns="http://www.w3.org/2000/svg">
<g clip-path="url(#clip0_54_19393)">
<mask id="mask0_54_19393" style="mask-type:luminance" maskUnits="userSpaceOnUse" x="0" y="0" width="15" height="28">
<path d="M0.000190735 0.394531H14.8387V27.8186H0.000190735V0.394531Z" fill="white"/>
</mask>
<g mask="url(#mask0_54_19393)">
<path fill-rule="evenodd" clip-rule="evenodd" d="M0.111529 18.4276C1.16981 19.9087 3.00899 21.3891 4.94038 21.3891C5.99867 21.3891 7.20578 20.7796 7.20578 19.6298C7.20578 19.0027 6.96436 18.5321 6.59285 18.1487C6.25845 17.7653 5.8131 17.4516 5.33025 17.1382C3.82585 16.0404 2.50702 15.0299 1.54132 13.7581C0.594376 12.521 0.000190735 11.0571 0.000190735 9.12335C0.000190735 6.02253 2.09839 0.394531 8.61759 0.394531C10.456 0.394531 12.4429 0.934788 14.0586 1.73602V9.7853C13.1488 8.44417 11.31 6.94545 9.56454 6.94545C8.65471 6.94545 7.57691 7.53812 7.57691 8.54863C7.57691 9.12335 7.91131 9.6112 8.31993 10.0294C8.72893 10.4476 9.30475 10.8134 9.71299 11.1268C11.31 12.1728 12.5913 13.1658 13.4457 14.3507C14.3563 15.5526 14.8387 16.9637 14.8387 18.9675C14.8387 23.8808 11.1615 27.8187 5.85021 27.8187C3.90008 27.8187 1.91283 27.4354 0.111529 26.721V18.4276Z" fill="#E4E6EE"/>
</g>
<path fill-rule="evenodd" clip-rule="evenodd" d="M26.7247 6.54431L26.1489 6.57913V12.6946C28.2475 12.8167 29.566 11.7186 29.566 9.74995C29.566 8.0599 28.5815 6.54431 26.7247 6.54431ZM18.516 27.3648V0.864258H25.4805C32.1478 0.864258 37.2735 2.90287 37.2735 9.85441C37.2735 16.7367 32.7791 18.8625 26.1489 18.6712V27.3648H18.516Z" fill="#E4E6EE"/>
<path fill-rule="evenodd" clip-rule="evenodd" d="M48.5279 13.1301C50.5519 13.1301 51.6289 11.4745 51.6289 9.74959C51.6289 7.43277 50.1249 6.43949 48.0263 6.54395V13.0952L48.5279 13.1301ZM52.2235 27.3648L47.9892 16.3181L47.915 16.3881C47.9521 17.6944 48.0263 19.0018 48.0263 20.2909V27.3648H40.3934V0.864258H47.7665C54.3963 0.864258 59.2068 2.69323 59.2068 9.67995C59.2068 12.5902 57.8505 15.2031 54.8237 16.3181L60.5065 27.3648H52.2235Z" fill="#E4E6EE"/>
<path fill-rule="evenodd" clip-rule="evenodd" d="M73.8037 18.3223L72.9864 12.1719C72.7637 10.5164 72.6149 8.8439 72.4293 7.18867H72.3551C72.1324 8.8439 71.9465 10.5164 71.6308 12.1719L70.5909 18.3223H73.8037ZM75.2706 27.3648L74.7135 23.9495H69.569L68.9377 27.3648H61.0637L67.8607 0.864258H77.184L83.1825 27.3648H75.2706Z" fill="#E4E6EE"/>
<path fill-rule="evenodd" clip-rule="evenodd" d="M93.3226 20.9704C96.8139 20.9356 97.4081 16.8587 97.4081 14.3498C97.4081 11.4745 96.8139 7.46759 93.3226 7.46759V20.9704ZM85.6893 0.864258H91.8366C100.528 0.864258 105.209 5.98646 105.209 14.0013C105.209 26.2323 96.9995 27.3648 92.3566 27.3648H85.6893V0.864258Z" fill="#E4E6EE"/>
<path fill-rule="evenodd" clip-rule="evenodd" d="M108.885 27.3648V0.864258H116.519V21.1097H122.257V27.3648H108.885Z" fill="#E4E6EE"/>
<mask id="mask1_54_19393" style="mask-type:luminance" maskUnits="userSpaceOnUse" x="0" y="0" width="202" height="28">
<path d="M0 27.818H201.075V0.359375H0V27.818Z" fill="white"/>
</mask>
<g mask="url(#mask1_54_19393)">
<path fill-rule="evenodd" clip-rule="evenodd" d="M125.358 27.3648H133.01V0.864258H125.358V27.3648Z" fill="#E4E6EE"/>
</g>
<mask id="mask2_54_19393" style="mask-type:luminance" maskUnits="userSpaceOnUse" x="0" y="0" width="202" height="28">
<path d="M0 27.818H201.075V0.359375H0V27.818Z" fill="white"/>
</mask>
<g mask="url(#mask2_54_19393)">
<path fill-rule="evenodd" clip-rule="evenodd" d="M137.505 0.864258H144.766L150.876 16.8235L150.951 16.7363C150.653 13.6875 150.096 10.6732 150.096 7.60687V0.864258H157.432V27.3648H150.096L144.395 12.0675L144.32 12.1371C144.506 14.6284 144.84 17.1025 144.84 19.5941V27.3648H137.505V0.864258Z" fill="#E4E6EE"/>
</g>
<mask id="mask3_54_19393" style="mask-type:luminance" maskUnits="userSpaceOnUse" x="0" y="0" width="202" height="28">
<path d="M0 27.818H201.075V0.359375H0V27.818Z" fill="white"/>
</mask>
<g mask="url(#mask3_54_19393)">
<path fill-rule="evenodd" clip-rule="evenodd" d="M182.281 12.0332L182.318 13.1658C182.318 19.6995 180.962 27.8184 172.122 27.8184C163.802 27.8184 161.109 20.9709 161.109 14.2459C161.109 7.6774 163.765 0.394531 172.048 0.394531C176.616 0.394531 180.033 3.11233 181.667 6.94545L174.295 9.50638C174.22 8.44381 173.459 6.80617 172.122 6.80617C168.593 6.80617 168.89 12.8868 168.89 14.8906C169.002 16.7892 168.853 21.4243 171.825 21.4243C173.849 21.4243 174.481 19.1764 174.443 17.6257H171.639V12.0332H182.281Z" fill="#E4E6EE"/>
</g>
<mask id="mask4_54_19393" style="mask-type:luminance" maskUnits="userSpaceOnUse" x="0" y="0" width="202" height="28">
<path d="M0 27.818H201.075V0.359375H0V27.818Z" fill="white"/>
</mask>
<g mask="url(#mask4_54_19393)">
<path fill-rule="evenodd" clip-rule="evenodd" d="M192.513 4.34902V6.17871H193.721C194.78 6.17871 196.246 6.33558 196.246 5.34194C196.246 4.40143 195.411 4.34902 194.464 4.34902H192.513ZM197.268 10.639H195.968L193.962 7.24163H192.513V10.639H191.381V3.26886H194.687C196.098 3.26886 197.379 3.66984 197.379 5.22025C197.379 6.66655 196.339 7.20681 195.281 7.24163L197.268 10.639ZM188.224 6.91066C188.224 9.99425 190.879 12.3814 194.074 12.3814C197.268 12.3814 199.942 9.99425 199.942 6.91066C199.942 3.80912 197.268 1.42194 194.074 1.42194C190.879 1.42194 188.224 3.80912 188.224 6.91066ZM187.072 6.91066C187.072 3.25163 190.174 0.359375 194.074 0.359375C197.974 0.359375 201.075 3.25163 201.075 6.91066C201.075 10.5517 197.974 13.4616 194.074 13.4616C190.174 13.4616 187.072 10.5517 187.072 6.91066Z" fill="#E4E6EE"/>
</g>
</g>
<defs>
<clipPath id="clip0_54_19393">
<rect width="201.25" height="28" fill="white"/>
</clipPath>
</defs>
</svg>
