<svg width="273" height="18" viewBox="0 0 273 18" fill="none" xmlns="http://www.w3.org/2000/svg">
<path d="M110.623 0.584534C111.836 0.584534 112.745 1.4929 112.745 2.70589C112.745 3.91888 111.836 4.82725 110.623 4.82725C109.41 4.82725 108.502 3.91888 108.502 2.70589C108.502 1.4929 109.41 0.584534 110.623 0.584534ZM110.623 0.930318C109.608 0.930318 108.848 1.69049 108.848 2.70589C108.848 3.72129 109.608 4.48147 110.623 4.48147C111.639 4.48147 112.399 3.72129 112.399 2.70589C112.399 1.69049 111.639 0.930318 110.623 0.930318ZM111.062 3.86125L110.308 2.88427V3.86125H109.973V1.55053H110.393C110.579 1.55053 111.285 1.55602 111.285 2.21192C111.285 2.56319 111.038 2.81841 110.684 2.85409L111.482 3.86125H111.062ZM110.308 2.58789H110.445C110.648 2.58789 110.953 2.5577 110.953 2.22289C110.953 1.8579 110.643 1.84418 110.434 1.84418H110.31V2.58514L110.308 2.58789Z" fill="black"/>
<path d="M0.06312 16.54V11.3121C0.9468 12.5196 1.90183 13.1233 2.93096 13.1233C3.31792 13.1233 3.63626 13.0218 3.88051 12.816C4.12475 12.6102 4.24825 12.3549 4.24825 12.0448C4.24825 11.6002 3.98205 11.1639 3.44964 10.7413L2.7169 10.1705C2.22841 9.80546 1.81127 9.44047 1.46548 9.07547C1.11969 8.71322 0.83977 8.33999 0.625711 7.95579C0.408908 7.57158 0.25248 7.17366 0.150939 6.76475C0.0493982 6.35585 0 5.92499 0 5.47218C0 4.69554 0.178383 3.88322 0.537892 3.03522C0.716275 2.64004 0.924845 2.27779 1.1636 1.95121C1.40236 1.62464 1.67405 1.33374 1.98416 1.08401C2.82942 0.362253 3.85306 0.00274658 5.05234 0.00274658C6.12264 0.00274658 7.20117 0.288156 8.28518 0.853486V5.94146C7.91744 5.37338 7.50304 4.92606 7.03376 4.59948C6.56722 4.27291 6.10617 4.10825 5.65335 4.10825C5.30757 4.10825 5.0249 4.20979 4.80261 4.41013C4.57208 4.60497 4.45682 4.83824 4.45682 5.10993C4.45682 5.55451 4.76144 5.99634 5.37343 6.43543L6.08422 6.96234C7.03376 7.64568 7.71161 8.34548 8.12052 9.06449C8.53766 9.78351 8.74623 10.6233 8.74623 11.5865C8.74623 13.2249 8.24676 14.5751 7.24782 15.6399C6.24888 16.7047 4.98373 17.2343 3.45239 17.2343C2.39581 17.2343 1.26514 17.0011 0.0576313 16.5345L0.06312 16.54Z" fill="black"/>
<path d="M15.2247 16.9489H10.7295V0.304626H15.0848C17.2555 0.304626 18.8637 0.746462 19.9148 1.63013C21.1498 2.67298 21.77 4.11923 21.77 5.97439C21.77 7.99421 21.1113 9.4981 19.7968 10.4915C18.8994 11.1612 17.6096 11.4932 15.9273 11.4932H15.2275V16.9489H15.2247ZM15.2247 7.75271L15.4305 7.76369C15.9767 7.76369 16.4103 7.59629 16.7341 7.26148C17.0579 6.92667 17.2199 6.46837 17.2199 5.88657C17.2199 5.30478 17.0607 4.84373 16.7451 4.48423C16.4295 4.11649 16.0261 3.93536 15.5376 3.93536H15.2247V7.75271Z" fill="black"/>
<path d="M35.1791 16.9489H30.3162L28.096 11.0185C28.074 10.9169 28.0356 10.7852 27.9835 10.6205C27.9286 10.4559 27.8627 10.2583 27.7831 10.0278L27.8161 11.1282V16.9489H23.3428V0.304626H27.945C29.9704 0.304626 31.488 0.702553 32.4952 1.50115C33.774 2.52204 34.4135 3.97378 34.4135 5.85639C34.4135 7.86797 33.5545 9.25935 31.8365 10.0278L35.1791 16.9489ZM27.838 8.01342H28.1399C28.6586 8.01342 29.0894 7.81583 29.4325 7.42065C29.7783 7.02547 29.9512 6.52326 29.9512 5.91127C29.9512 4.6681 29.3007 4.04514 27.9999 4.04514H27.838V8.01342Z" fill="black"/>
<path d="M48.4341 16.9489H43.7879L43.4531 14.8358H40.4233L40.0556 16.9489H35.4094L39.4107 0.304626H44.9076L48.4341 16.9489ZM42.9234 11.2682L42.6325 9.32795C42.6325 9.32795 42.6106 9.22367 42.5886 9.03705C42.5749 8.87788 42.498 8.25492 42.3636 7.15994C42.3498 7.03919 42.3306 6.87179 42.3087 6.65773C42.2867 6.44367 42.2593 6.17747 42.2236 5.85364L42.0836 4.2784C42.0699 4.42934 42.0507 4.59949 42.0233 4.7861C41.9986 4.97272 41.9711 5.17854 41.9437 5.40083C41.8943 5.84541 41.8586 6.15552 41.8367 6.32841C41.8147 6.5013 41.801 6.60559 41.7927 6.64126L41.4799 8.65834L41.0271 11.2682H42.9234Z" fill="black"/>
<path d="M49.5156 16.9489V0.304626H53.3961C55.6163 0.304626 57.3452 0.900144 58.5802 2.09392C60.2049 3.6527 61.0172 5.83443 61.0172 8.63638C61.0172 11.4383 60.3311 13.5268 58.9589 15.0279C57.7871 16.3068 56.0417 16.9462 53.72 16.9462H49.5156V16.9489ZM54.0109 12.9285C55.6218 12.8489 56.4259 11.463 56.4259 8.76811C56.4259 7.43986 56.2201 6.38878 55.8112 5.62038C55.4022 4.84373 54.8479 4.45678 54.1508 4.45678H54.0109V12.9312V12.9285Z" fill="black"/>
<path d="M70.5864 16.9489H62.7156V0.304626H67.2109V12.9505H70.5864V16.9489Z" fill="black"/>
<path d="M76.6407 16.9489H72.1455V0.304626H76.6407V16.9489Z" fill="black"/>
<path d="M79.2334 16.9489V0.304626H83.5228L85.7759 6.14729C85.8967 6.49307 86.0366 6.88825 86.1903 7.33283C86.344 7.77741 86.5142 8.29334 86.7035 8.87514L87.1673 10.3406C87.0026 8.89709 86.8764 7.65941 86.7886 6.63303C86.7035 5.60665 86.6596 4.74219 86.6596 4.04514V0.304626H90.949V16.9489H86.6596L84.3955 10.8264C84.1595 10.1732 83.9454 9.55848 83.7533 8.98766C83.5612 8.41684 83.3966 7.87072 83.2511 7.35479C83.3444 8.52661 83.413 9.5475 83.4569 10.4174C83.5009 11.2874 83.5228 12.0503 83.5228 12.7035V16.9517H79.2334V16.9489Z" fill="black"/>
<path d="M99.07 7.32185H105.344V8.01067C105.344 11.216 104.866 13.524 103.911 14.9319C102.868 16.4687 101.329 17.2398 99.2868 17.2398C97.245 17.2398 95.7082 16.4851 94.5638 14.9758C93.4276 13.4527 92.8595 11.3615 92.8595 8.70224C92.8595 6.043 93.4304 3.88321 94.5748 2.32993C95.7164 0.776643 97.2807 0 99.2648 0C101.894 0 103.804 1.37216 104.99 4.11923L100.634 5.71368C100.568 5.18951 100.42 4.77512 100.187 4.46776C99.9537 4.16314 99.66 4.00945 99.3088 4.00945C98.0738 4.00945 97.4536 5.70819 97.4536 9.1084C97.4536 10.5519 97.5908 11.603 97.8625 12.2561C98.1342 12.9093 98.5705 13.2359 99.166 13.2359C99.4021 13.2359 99.6189 13.1782 99.8137 13.063C100.009 12.9477 100.17 12.7858 100.305 12.5772C100.437 12.3687 100.541 12.1162 100.618 11.817C100.695 11.5179 100.73 11.1859 100.73 10.8209H99.07V7.31636V7.32185Z" fill="black"/>
<path d="M124.744 0.119873L124.744 17.1199" stroke="black" stroke-miterlimit="10"/>
<path d="M249.098 0.484375C250.311 0.484375 251.219 1.39274 251.219 2.60573C251.219 3.81872 250.311 4.72709 249.098 4.72709C247.885 4.72709 246.977 3.81872 246.977 2.60573C246.977 1.39274 247.885 0.484375 249.098 0.484375ZM249.098 0.830159C248.083 0.830159 247.322 1.59034 247.322 2.60573C247.322 3.62113 248.083 4.38131 249.098 4.38131C250.113 4.38131 250.874 3.62113 250.874 2.60573C250.874 1.59034 250.113 0.830159 249.098 0.830159ZM249.537 3.76384L248.782 2.78686V3.76384H248.448V1.45038H248.867C249.054 1.45038 249.759 1.45586 249.759 2.11176C249.759 2.46303 249.512 2.71825 249.158 2.75393L249.957 3.76109H249.537V3.76384ZM248.782 2.48773H248.92C249.123 2.48773 249.427 2.45754 249.427 2.12273C249.427 1.75774 249.117 1.74402 248.909 1.74402H248.785V2.48498L248.782 2.48773Z" fill="black"/>
<path d="M136.744 16.7774V0.440482H142.263C144.008 0.418528 145.309 0.660028 146.171 1.05795C147.938 1.87576 149.042 3.75013 149.042 5.95931C149.042 8.98355 147.365 11.6538 142.683 11.6538H140.74V16.7747H136.744V16.7774ZM142.529 7.99011C144.206 7.99011 145.046 7.41655 145.046 6.02518C145.046 4.6338 144.228 4.10415 142.376 4.10415H140.743V7.99011H142.532H142.529Z" fill="black"/>
<path d="M158.6 16.7774L154.824 11.5001H154.78V16.7774H150.784V0.440475H156.127C157.826 0.440475 159.13 0.660021 159.992 1.03599C161.759 1.83185 162.994 3.75013 162.994 6.06908C162.994 8.65148 161.449 10.7701 158.932 11.2119L163.37 16.7747H158.6V16.7774ZM156.328 8.65423C157.983 8.65423 158.998 7.88033 158.998 6.31332C158.998 4.9 157.939 4.10689 156.372 4.10689H154.783V8.65423H156.328Z" fill="black"/>
<path d="M164.495 8.98355C164.495 3.92851 168.137 0.130371 173.104 0.130371C178.071 0.130371 181.735 3.81599 181.735 8.49781C181.735 13.1796 177.983 17.0848 173.302 17.0848C168.62 17.0848 164.492 13.8163 164.492 8.98355H164.495ZM177.566 8.63228C177.566 6.07183 175.733 3.79678 173.107 3.79678C170.48 3.79678 168.669 5.98126 168.669 8.56641C168.669 11.1516 170.502 13.4239 173.173 13.4239C175.843 13.4239 177.566 11.2394 177.566 8.63228Z" fill="black"/>
<path d="M201.387 17.0656C200.857 17.1095 200.682 17.1095 200.371 17.1095C198.717 17.1095 197.237 16.6237 196.507 15.8279C195.006 16.7335 193.593 17.1095 191.916 17.1095C187.325 17.1095 183.285 13.38 183.285 8.87378C183.285 4.03828 186.993 0.130371 191.872 0.130371C196.752 0.130371 200.594 4.08219 200.594 8.49781C200.594 10.3749 200.196 11.8541 199.246 13.1988C199.666 13.5748 200.306 13.7724 200.945 13.7724C201.055 13.7724 201.233 13.7724 201.387 13.7504V17.0628V17.0656ZM187.479 7.92424C188.274 7.59218 188.936 7.37263 189.797 7.37263C191.916 7.37263 194.081 8.62953 195.868 10.8168C196.288 10.0895 196.42 9.2717 196.42 8.40999C196.42 5.84954 194.564 3.79678 191.872 3.79678C189.644 3.79678 187.986 5.34184 187.479 7.90229V7.92424ZM189.334 10.4188C188.826 10.4188 188.428 10.5066 187.898 10.685C188.672 12.3838 190.261 13.4458 191.872 13.4458C192.512 13.4458 193.198 13.336 193.749 13.0479C192.248 11.1269 191.013 10.4216 189.334 10.4216V10.4188Z" fill="black"/>
<path d="M211.435 0.440475H215.606V10.4408C215.606 12.1395 215.343 13.4211 214.788 14.3048C213.707 16.0502 211.874 17.0875 209.401 17.0875C208.032 17.0875 206.863 16.8213 205.913 16.2697C203.992 15.1445 203.064 13.6214 203.064 10.4627V0.440475H207.236V10.3969C207.236 12.4277 207.875 13.4211 209.355 13.4211C210.834 13.4211 211.429 12.7158 211.429 10.4188V0.440475H211.435Z" fill="black"/>
<path d="M218.522 16.7774V0.440475H222.694V16.7774H218.522Z" fill="black"/>
<path d="M235.807 16.7774L229.536 6.79907L229.646 16.7774H225.65V0.440475H229.248L235.607 10.7728L235.431 0.440475H239.427V16.7774H235.807Z" fill="black"/>
<path d="M252.94 16.7774L252.144 14.4146H246.471L245.61 16.7774H241.128L247.684 0.440475H250.975L257.465 16.7774H252.94ZM249.364 5.53942L249.298 5.51747L247.621 11.1022H251.043L249.367 5.53942H249.364Z" fill="black"/>
<path d="M259.255 16.7774V0.440475H263.426V13.111H268.262V16.7747H259.255V16.7774Z" fill="black"/>
<path d="M270.709 0.413025C271.922 0.413025 272.831 1.3214 272.831 2.53438C272.831 3.74737 271.922 4.65574 270.709 4.65574C269.496 4.65574 268.588 3.74737 268.588 2.53438C268.588 1.3214 269.496 0.413025 270.709 0.413025ZM270.709 0.758809C269.694 0.758809 268.934 1.51899 268.934 2.53438C268.934 3.54978 269.694 4.30996 270.709 4.30996C271.725 4.30996 272.485 3.54978 272.485 2.53438C272.485 1.51899 271.725 0.758809 270.709 0.758809ZM271.148 3.68974L270.394 2.71277V3.68974H270.059V1.37903H270.479C270.665 1.37903 271.371 1.38451 271.371 2.04041C271.371 2.39168 271.124 2.6469 270.77 2.68258L271.568 3.68974H271.148ZM270.394 2.41638H270.531C270.734 2.41638 271.039 2.38619 271.039 2.05138C271.039 1.68639 270.728 1.67267 270.52 1.67267H270.396V2.41363L270.394 2.41638Z" fill="black"/>
</svg>
