<svg width="273" height="18" viewBox="0 0 273 18" fill="none" xmlns="http://www.w3.org/2000/svg">
<path d="M110.623 0.824356C111.836 0.824356 112.745 1.73273 112.745 2.94572C112.745 4.15871 111.836 5.06708 110.623 5.06708C109.41 5.06708 108.502 4.15871 108.502 2.94572C108.502 1.73273 109.41 0.824356 110.623 0.824356ZM110.623 1.17014C109.608 1.17014 108.848 1.93032 108.848 2.94572C108.848 3.96111 109.608 4.72129 110.623 4.72129C111.639 4.72129 112.399 3.96111 112.399 2.94572C112.399 1.93032 111.639 1.17014 110.623 1.17014ZM111.062 4.10107L110.308 3.1241V4.10107H109.973V1.79036H110.393C110.579 1.79036 111.285 1.79585 111.285 2.45174C111.285 2.80301 111.038 3.05823 110.684 3.09391L111.482 4.10107H111.062ZM110.308 2.82771H110.445C110.648 2.82771 110.953 2.79752 110.953 2.46272C110.953 2.09772 110.643 2.084 110.434 2.084H110.31V2.82497L110.308 2.82771Z" fill="white"/>
<path d="M0.06312 16.7798V11.5519C0.9468 12.7594 1.90183 13.3632 2.93096 13.3632C3.31792 13.3632 3.63626 13.2616 3.88051 13.0558C4.12475 12.85 4.24825 12.5948 4.24825 12.2846C4.24825 11.8401 3.98205 11.4037 3.44964 10.9811L2.7169 10.4103C2.22841 10.0453 1.81127 9.68029 1.46548 9.31529C1.11969 8.95304 0.83977 8.57982 0.625711 8.19561C0.408908 7.81141 0.25248 7.41348 0.150939 7.00458C0.0493982 6.59567 0 6.16481 0 5.712C0 4.93536 0.178383 4.12304 0.537892 3.27504C0.716275 2.87986 0.924845 2.51761 1.1636 2.19104C1.40236 1.86446 1.67405 1.57356 1.98416 1.32383C2.82942 0.602075 3.85306 0.242569 5.05234 0.242569C6.12264 0.242569 7.20117 0.527978 8.28518 1.09331V6.18128C7.91744 5.6132 7.50304 5.16588 7.03376 4.83931C6.56722 4.51273 6.10617 4.34807 5.65335 4.34807C5.30757 4.34807 5.0249 4.44961 4.80261 4.64995C4.57208 4.8448 4.45682 5.07806 4.45682 5.34975C4.45682 5.79433 4.76144 6.23617 5.37343 6.67526L6.08422 7.20217C7.03376 7.8855 7.71161 8.58531 8.12052 9.30432C8.53766 10.0233 8.74623 10.8631 8.74623 11.8263C8.74623 13.4647 8.24676 14.8149 7.24782 15.8797C6.24888 16.9445 4.98373 17.4742 3.45239 17.4742C2.39581 17.4742 1.26514 17.2409 0.0576313 16.7744L0.06312 16.7798Z" fill="white"/>
<path d="M15.2247 17.1887H10.7295V0.544441H15.0848C17.2555 0.544441 18.8637 0.986277 19.9148 1.86995C21.1498 2.91279 21.77 4.35905 21.77 6.21421C21.77 8.23403 21.1113 9.73792 19.7968 10.7314C18.8994 11.401 17.6096 11.733 15.9273 11.733H15.2275V17.1887H15.2247ZM15.2247 7.99253L15.4305 8.0035C15.9767 8.0035 16.4103 7.8361 16.7341 7.50129C17.0579 7.16649 17.2199 6.70819 17.2199 6.12639C17.2199 5.54459 17.0607 5.08355 16.7451 4.72404C16.4295 4.3563 16.0261 4.17518 15.5376 4.17518H15.2247V7.99253Z" fill="white"/>
<path d="M35.1791 17.1887H30.3162L28.096 11.2583C28.074 11.1567 28.0356 11.025 27.9835 10.8603C27.9286 10.6957 27.8627 10.4981 27.7831 10.2676L27.8161 11.368V17.1887H23.3428V0.544441H27.945C29.9704 0.544441 31.488 0.942368 32.4952 1.74097C33.774 2.76185 34.4135 4.2136 34.4135 6.0962C34.4135 8.10779 33.5545 9.49916 31.8365 10.2676L35.1791 17.1887ZM27.838 8.25324H28.1399C28.6586 8.25324 29.0894 8.05565 29.4325 7.66046C29.7783 7.26528 29.9512 6.76307 29.9512 6.15109C29.9512 4.90791 29.3007 4.28495 27.9999 4.28495H27.838V8.25324Z" fill="white"/>
<path d="M48.4341 17.1887H43.7879L43.4531 15.0756H40.4233L40.0556 17.1887H35.4094L39.4107 0.544441H44.9076L48.4341 17.1887ZM42.9234 11.508L42.6325 9.56777C42.6325 9.56777 42.6106 9.46348 42.5886 9.27687C42.5749 9.1177 42.498 8.49474 42.3636 7.39975C42.3498 7.279 42.3306 7.1116 42.3087 6.89754C42.2867 6.68349 42.2593 6.41729 42.2236 6.09346L42.0836 4.51822C42.0699 4.66916 42.0507 4.8393 42.0233 5.02592C41.9986 5.21253 41.9711 5.41835 41.9437 5.64064C41.8943 6.08522 41.8586 6.39533 41.8367 6.56822C41.8147 6.74112 41.801 6.8454 41.7927 6.88108L41.4799 8.89815L41.0271 11.508H42.9234Z" fill="white"/>
<path d="M49.5156 17.1887V0.544441H53.3961C55.6163 0.544441 57.3452 1.13996 58.5802 2.33374C60.2049 3.89251 61.0172 6.07425 61.0172 8.8762C61.0172 11.6781 60.3311 13.7666 58.9589 15.2677C57.7871 16.5466 56.0417 17.186 53.72 17.186H49.5156V17.1887ZM54.0109 13.1683C55.6218 13.0887 56.4259 11.7028 56.4259 9.00793C56.4259 7.67968 56.2201 6.6286 55.8112 5.86019C55.4022 5.08355 54.8479 4.6966 54.1508 4.6966H54.0109V13.1711V13.1683Z" fill="white"/>
<path d="M70.5864 17.1887H62.7156V0.544441H67.2109V13.1903H70.5864V17.1887Z" fill="white"/>
<path d="M76.6407 17.1887H72.1455V0.544441H76.6407V17.1887Z" fill="white"/>
<path d="M79.2334 17.1887V0.544441H83.5228L85.7759 6.3871C85.8967 6.73288 86.0366 7.12807 86.1903 7.57265C86.344 8.01723 86.5142 8.53316 86.7035 9.11496L87.1673 10.5804C87.0026 9.13691 86.8764 7.89922 86.7886 6.87285C86.7035 5.84647 86.6596 4.98201 86.6596 4.28495V0.544441H90.949V17.1887H86.6596L84.3955 11.0662C84.1595 10.413 83.9454 9.79829 83.7533 9.22747C83.5612 8.65665 83.3966 8.11053 83.2511 7.5946C83.3444 8.76643 83.413 9.78731 83.4569 10.6573C83.5009 11.5272 83.5228 12.2901 83.5228 12.9433V17.1915H79.2334V17.1887Z" fill="white"/>
<path d="M99.07 7.56167H105.344V8.2505C105.344 11.4559 104.866 13.7638 103.911 15.1717C102.868 16.7085 101.329 17.4796 99.2868 17.4796C97.245 17.4796 95.7082 16.725 94.5638 15.2156C93.4276 13.6925 92.8595 11.6013 92.8595 8.94207C92.8595 6.28282 93.4304 4.12304 94.5748 2.56975C95.7164 1.01647 97.2807 0.239822 99.2648 0.239822C101.894 0.239822 103.804 1.61198 104.99 4.35905L100.634 5.9535C100.568 5.42933 100.42 5.01494 100.187 4.70758C99.9537 4.40296 99.66 4.24928 99.3088 4.24928C98.0738 4.24928 97.4536 5.94801 97.4536 9.34822C97.4536 10.7917 97.5908 11.8428 97.8625 12.496C98.1342 13.1491 98.5705 13.4757 99.166 13.4757C99.4021 13.4757 99.6189 13.4181 99.8137 13.3028C100.009 13.1875 100.17 13.0256 100.305 12.817C100.437 12.6085 100.541 12.356 100.618 12.0569C100.695 11.7577 100.73 11.4257 100.73 11.0607H99.07V7.55618V7.56167Z" fill="white"/>
<path d="M124.744 0.359695L124.744 17.3597" stroke="white" stroke-miterlimit="10"/>
<path d="M249.098 0.724197C250.311 0.724197 251.219 1.63257 251.219 2.84556C251.219 4.05855 250.311 4.96692 249.098 4.96692C247.885 4.96692 246.977 4.05855 246.977 2.84556C246.977 1.63257 247.885 0.724197 249.098 0.724197ZM249.098 1.06998C248.083 1.06998 247.322 1.83016 247.322 2.84556C247.322 3.86096 248.083 4.62113 249.098 4.62113C250.113 4.62113 250.874 3.86096 250.874 2.84556C250.874 1.83016 250.113 1.06998 249.098 1.06998ZM249.537 4.00366L248.782 3.02668V4.00366H248.448V1.6902H248.867C249.054 1.6902 249.759 1.69569 249.759 2.35158C249.759 2.70285 249.512 2.95807 249.158 2.99375L249.957 4.00092H249.537V4.00366ZM248.782 2.72755H248.92C249.123 2.72755 249.427 2.69736 249.427 2.36256C249.427 1.99756 249.117 1.98384 248.909 1.98384H248.785V2.72481L248.782 2.72755Z" fill="white"/>
<path d="M136.744 17.0173V0.680305H142.263C144.008 0.65835 145.309 0.89985 146.171 1.29778C147.938 2.11558 149.042 3.98996 149.042 6.19913C149.042 9.22338 147.365 11.8936 142.683 11.8936H140.74V17.0145H136.744V17.0173ZM142.529 8.22993C144.206 8.22993 145.046 7.65637 145.046 6.265C145.046 4.87363 144.228 4.34397 142.376 4.34397H140.743V8.22993H142.532H142.529Z" fill="white"/>
<path d="M158.6 17.0172L154.824 11.7399H154.78V17.0172H150.784V0.680305H156.127C157.826 0.680305 159.13 0.899851 159.992 1.27582C161.759 2.07168 162.994 3.98996 162.994 6.30891C162.994 8.89131 161.449 11.0099 158.932 11.4518L163.37 17.0145H158.6V17.0172ZM156.328 8.89406C157.983 8.89406 158.998 8.12016 158.998 6.55315C158.998 5.13983 157.939 4.34672 156.372 4.34672H154.783V8.89406H156.328Z" fill="white"/>
<path d="M164.495 9.22337C164.495 4.16833 168.137 0.370193 173.104 0.370193C178.071 0.370193 181.735 4.05582 181.735 8.73763C181.735 13.4194 177.983 17.3246 173.302 17.3246C168.62 17.3246 164.492 14.0561 164.492 9.22337H164.495ZM177.566 8.8721C177.566 6.31165 175.733 4.03661 173.107 4.03661C170.48 4.03661 168.669 6.22109 168.669 8.80624C168.669 11.3914 170.502 13.6637 173.173 13.6637C175.843 13.6637 177.566 11.4792 177.566 8.8721Z" fill="white"/>
<path d="M201.387 17.3054C200.857 17.3493 200.682 17.3493 200.371 17.3493C198.717 17.3493 197.237 16.8636 196.507 16.0677C195.006 16.9733 193.593 17.3493 191.916 17.3493C187.325 17.3493 183.285 13.6198 183.285 9.1136C183.285 4.27811 186.993 0.370193 191.872 0.370193C196.752 0.370193 200.594 4.32202 200.594 8.73763C200.594 10.6147 200.196 12.0939 199.246 13.4386C199.666 13.8146 200.306 14.0122 200.945 14.0122C201.055 14.0122 201.233 14.0122 201.387 13.9903V17.3027V17.3054ZM187.479 8.16406C188.274 7.832 188.936 7.61246 189.797 7.61246C191.916 7.61246 194.081 8.86936 195.868 11.0566C196.288 10.3293 196.42 9.51153 196.42 8.64981C196.42 6.08936 194.564 4.03661 191.872 4.03661C189.644 4.03661 187.986 5.58166 187.479 8.14211V8.16406ZM189.334 10.6587C188.826 10.6587 188.428 10.7465 187.898 10.9249C188.672 12.6236 190.261 13.6856 191.872 13.6856C192.512 13.6856 193.198 13.5759 193.749 13.2877C192.248 11.3667 191.013 10.6614 189.334 10.6614V10.6587Z" fill="white"/>
<path d="M211.435 0.680298H215.606V10.6806C215.606 12.3793 215.343 13.6609 214.788 14.5446C213.707 16.29 211.874 17.3273 209.401 17.3273C208.032 17.3273 206.863 17.0611 205.913 16.5095C203.992 15.3844 203.064 13.8613 203.064 10.7026V0.680298H207.236V10.6367C207.236 12.6675 207.875 13.6609 209.355 13.6609C210.834 13.6609 211.429 12.9556 211.429 10.6586V0.680298H211.435Z" fill="white"/>
<path d="M218.522 17.0172V0.680298H222.694V17.0172H218.522Z" fill="white"/>
<path d="M235.807 17.0172L229.536 7.03889L229.646 17.0172H225.65V0.680298H229.248L235.607 11.0127L235.431 0.680298H239.427V17.0172H235.807Z" fill="white"/>
<path d="M252.94 17.0172L252.144 14.6544H246.471L245.61 17.0172H241.128L247.684 0.680305H250.975L257.465 17.0172H252.94ZM249.364 5.77925L249.298 5.7573L247.621 11.342H251.043L249.367 5.77925H249.364Z" fill="white"/>
<path d="M259.255 17.0172V0.680298H263.426V13.3508H268.262V17.0145H259.255V17.0172Z" fill="white"/>
<path d="M270.709 0.652847C271.922 0.652847 272.831 1.56122 272.831 2.77421C272.831 3.9872 271.922 4.89557 270.709 4.89557C269.496 4.89557 268.588 3.9872 268.588 2.77421C268.588 1.56122 269.496 0.652847 270.709 0.652847ZM270.709 0.998632C269.694 0.998632 268.934 1.75881 268.934 2.77421C268.934 3.78961 269.694 4.54978 270.709 4.54978C271.725 4.54978 272.485 3.78961 272.485 2.77421C272.485 1.75881 271.725 0.998632 270.709 0.998632ZM271.148 3.92957L270.394 2.95259V3.92957H270.059V1.61885H270.479C270.665 1.61885 271.371 1.62434 271.371 2.28023C271.371 2.6315 271.124 2.88672 270.77 2.9224L271.568 3.92957H271.148ZM270.394 2.6562H270.531C270.734 2.6562 271.039 2.62601 271.039 2.29121C271.039 1.92621 270.728 1.91249 270.52 1.91249H270.396V2.65346L270.394 2.6562Z" fill="white"/>
</svg>
