<svg width="586" height="254" viewBox="0 0 586 254" fill="none" xmlns="http://www.w3.org/2000/svg">
<mask id="mask0_2_6394" style="mask-type:luminance" maskUnits="userSpaceOnUse" x="119" y="106" width="318" height="147">
<path d="M436.452 146.728L347.192 252.938H199.799C155.173 252.938 119 216.7 119 171.995C119 153.413 126.776 136.644 139.25 124.786C150.895 113.71 166.635 106.916 183.963 106.916C192.031 106.916 199.673 108.76 206.485 112.054L169.666 147.584L168.999 148.231L168.986 148.244C164.219 153.011 161.271 159.6 161.271 166.883C161.271 185.325 176.195 200.276 194.605 200.276C205.587 200.276 215.561 195.986 222.954 188.982L223.172 188.772L275.757 138.593C286.434 143.805 298.432 146.728 311.11 146.728H436.452Z" fill="white"/>
</mask>
<g mask="url(#mask0_2_6394)">
<path d="M356.844 244.073H209.45C164.825 244.073 128.651 207.835 128.651 163.13C128.651 144.548 136.428 127.779 148.901 115.921C160.546 104.845 176.286 98.0513 193.614 98.0513C201.683 98.0513 209.324 99.8951 216.136 103.189" stroke="#D9D9D9" stroke-opacity="0.2" stroke-width="2.08" stroke-miterlimit="10"/>
<path d="M366.059 235.208H218.666C174.041 235.208 137.867 198.97 137.867 154.265C137.867 135.683 145.644 118.914 158.117 107.056C169.762 95.9803 185.502 89.1863 202.83 89.1863C210.899 89.1863 218.54 91.0301 225.352 94.3244" stroke="#D9D9D9" stroke-opacity="0.2" stroke-width="2.08" stroke-miterlimit="10"/>
<path d="M375.275 226.339H227.882C183.256 226.339 147.083 190.101 147.083 145.396C147.083 126.813 154.859 110.045 167.333 98.1868C178.978 87.1109 194.718 80.3169 212.046 80.3169C220.114 80.3169 227.756 82.1607 234.568 85.455" stroke="#D9D9D9" stroke-opacity="0.2" stroke-width="2.08" stroke-miterlimit="10"/>
<path d="M384.49 217.474H237.097C192.471 217.474 156.298 181.236 156.298 136.531C156.298 117.948 164.074 101.18 176.548 89.3218C188.193 78.2459 203.933 71.4519 221.261 71.4519C229.329 71.4519 236.97 73.2957 243.783 76.59" stroke="#D9D9D9" stroke-opacity="0.2" stroke-width="2.08" stroke-miterlimit="10"/>
<path d="M393.706 208.609H246.313C201.687 208.609 165.514 172.371 165.514 127.666C165.514 109.083 173.29 92.3147 185.764 80.4568C197.408 69.381 213.149 62.5869 230.477 62.5869C238.545 62.5869 246.186 64.4307 252.999 67.725" stroke="#D9D9D9" stroke-opacity="0.2" stroke-width="2.08" stroke-miterlimit="10"/>
<path d="M402.922 199.744H255.529C210.903 199.744 174.729 163.506 174.729 118.801C174.729 100.219 182.506 83.4497 194.979 71.5918C206.624 60.516 222.365 53.7219 239.692 53.7219C247.761 53.7219 255.402 55.5657 262.215 58.8601" stroke="#D9D9D9" stroke-opacity="0.2" stroke-width="2.08" stroke-miterlimit="10"/>
<path d="M412.137 190.878H264.744C220.119 190.878 183.945 154.641 183.945 109.935C183.945 91.3533 191.722 74.5844 204.195 62.7265C215.84 51.6507 231.58 44.8567 248.908 44.8567C256.977 44.8567 264.618 46.7005 271.43 49.9948" stroke="#D9D9D9" stroke-opacity="0.2" stroke-width="2.08" stroke-miterlimit="10"/>
<path d="M421.352 182.013H273.959C229.333 182.013 193.16 145.776 193.16 101.07C193.16 82.4883 200.937 65.7194 213.41 53.8616C225.055 42.7857 240.795 35.9917 258.123 35.9917C266.192 35.9917 273.833 37.8355 280.645 41.1298" stroke="#D9D9D9" stroke-opacity="0.2" stroke-width="2.08" stroke-miterlimit="10"/>
<path d="M430.568 173.148H283.175C238.549 173.148 202.376 136.911 202.376 92.2053C202.376 73.6233 210.152 56.8545 222.626 44.9966C234.271 33.9207 250.011 27.1267 267.339 27.1267C275.407 27.1267 283.049 28.9705 289.861 32.2648" stroke="#D9D9D9" stroke-opacity="0.2" stroke-width="2.08" stroke-miterlimit="10"/>
<path d="M439.784 164.279H292.391C247.765 164.279 211.592 128.041 211.592 83.3359C211.592 64.7539 219.368 47.9851 231.842 36.1272C243.487 25.0514 259.227 18.2573 276.555 18.2573C284.623 18.2573 292.264 20.1011 299.077 23.3955" stroke="#D9D9D9" stroke-opacity="0.2" stroke-width="2.08" stroke-miterlimit="10"/>
<path d="M449 155.414H301.607C256.981 155.414 220.808 119.176 220.808 74.4709C220.808 55.8889 228.584 39.1201 241.058 27.2622C252.702 16.1864 268.443 9.39233 285.77 9.39233C293.839 9.39233 301.48 11.2361 308.293 14.5305" stroke="#D9D9D9" stroke-opacity="0.2" stroke-width="2.08" stroke-miterlimit="10"/>
</g>
<mask id="mask1_2_6394" style="mask-type:luminance" maskUnits="userSpaceOnUse" x="161" y="126" width="75" height="75">
<path d="M235.881 158.927C235.881 170.658 231.005 181.249 223.172 188.773L222.954 188.982C215.561 195.986 205.587 200.276 194.605 200.276C176.195 200.276 161.271 185.325 161.271 166.883C161.271 159.6 164.219 153.011 168.986 148.244L168.999 148.231L169.666 147.584C174.359 143.215 180.657 140.541 187.57 140.541C193.706 140.541 199.241 143.119 203.153 147.257L224.707 126.687C231.703 135.547 235.881 146.75 235.881 158.927Z" fill="white"/>
</mask>
<g mask="url(#mask1_2_6394)">
<path d="M234.851 121.785C241.847 130.645 246.025 141.848 246.025 154.025C246.025 166.202 241.149 176.347 233.316 183.87L233.098 184.08C225.706 191.084 215.731 195.374 204.749 195.374C186.34 195.374 171.415 180.423 171.415 161.981C171.415 154.698 174.363 148.109 179.13 143.342L179.143 143.329L179.811 142.682C184.504 138.313 190.801 135.639 197.714 135.639" stroke="#D9D9D9" stroke-opacity="0.2" stroke-width="2.08" stroke-miterlimit="10"/>
<path d="M244.996 116.883C251.992 125.743 256.17 136.946 256.17 149.123C256.17 161.299 251.294 171.445 243.461 178.968L243.243 179.178C235.85 186.182 225.876 190.472 214.894 190.472C196.484 190.472 181.56 175.521 181.56 157.079C181.56 149.795 184.508 143.207 189.275 138.44L189.288 138.427L189.955 137.78C194.648 133.411 200.946 130.737 207.859 130.737" stroke="#D9D9D9" stroke-opacity="0.2" stroke-width="2.08" stroke-miterlimit="10"/>
<path d="M255.14 111.98C262.136 120.841 266.314 132.043 266.314 144.22C266.314 156.397 261.438 166.542 253.605 174.066L253.387 174.276C245.995 181.279 236.02 185.57 225.038 185.57C206.629 185.57 191.704 170.619 191.704 152.176C191.704 144.893 194.652 138.304 199.419 133.538L199.432 133.525L200.1 132.878C204.793 128.509 211.09 125.835 218.003 125.835C224.14 125.835 229.674 128.413 233.587 132.55" stroke="#D9D9D9" stroke-opacity="0.2" stroke-width="2.08" stroke-miterlimit="10"/>
<path d="M265.285 107.078C272.281 115.939 276.459 127.141 276.459 139.318C276.459 151.495 271.583 161.64 263.75 169.164L263.532 169.374C256.139 176.377 246.165 180.668 235.183 180.668C216.773 180.668 201.849 165.717 201.849 147.274C201.849 139.991 204.797 133.402 209.564 128.636L209.577 128.622L210.244 127.976C214.937 123.607 221.235 120.933 228.148 120.933C234.284 120.933 239.819 123.511 243.731 127.648" stroke="#D9D9D9" stroke-opacity="0.2" stroke-width="2.08" stroke-miterlimit="10"/>
<path d="M275.43 102.176C282.425 111.036 286.603 122.239 286.603 134.416C286.603 146.593 281.727 156.738 273.894 164.262L273.676 164.471C266.284 171.475 256.309 175.766 245.327 175.766C226.918 175.766 211.993 160.814 211.993 142.372C211.993 135.089 214.941 128.5 219.708 123.733L219.722 123.72L220.389 123.073C225.082 118.704 231.38 116.03 238.292 116.03C244.429 116.03 249.963 118.608 253.876 122.746" stroke="#D9D9D9" stroke-opacity="0.2" stroke-width="2.08" stroke-miterlimit="10"/>
<path d="M285.574 97.2737C292.57 106.134 296.748 117.337 296.748 129.514C296.748 141.691 291.872 151.836 284.039 159.359L283.821 159.569C276.428 166.573 266.454 170.863 255.472 170.863C237.062 170.863 222.138 155.912 222.138 137.47C222.138 130.187 225.086 123.598 229.853 118.831L229.866 118.818L230.533 118.171C235.226 113.802 241.524 111.128 248.437 111.128C254.573 111.128 260.108 113.706 264.02 117.844" stroke="#D9D9D9" stroke-opacity="0.2" stroke-width="2.08" stroke-miterlimit="10"/>
</g>
<path d="M203.111 147.698L224.538 127.302" stroke="#D9D9D9" stroke-width="2"/>
<path d="M275.283 139.107C285.896 144.276 297.824 147.178 310.427 147.178H435.029L346.3 252.488H199.773C155.415 252.488 119.451 216.555 119.451 172.227C119.451 136.59 148.366 107.698 184.03 107.698C212.533 107.698 235.642 130.789 235.642 159.27C235.642 181.914 217.272 200.27 194.609 200.27C176.309 200.27 161.472 185.445 161.472 167.159C161.472 152.732 173.178 141.035 187.616 141.035C193.716 141.035 199.218 143.595 203.107 147.694" stroke="#D9D9D9" stroke-width="2"/>
<path d="M222.791 189.071L332.699 84.4507C341.049 76.9472 346.3 66.0645 346.3 53.96C346.3 25.4795 323.191 2.38843 294.688 2.38843C276.852 2.38843 260.701 9.61469 249.017 21.2989L139.581 125.417" stroke="#D9D9D9" stroke-width="2"/>
<path d="M169.367 148.417L206.632 112.875" stroke="#D9D9D9" stroke-width="2"/>
<circle cx="335.347" cy="25.2842" r="12.2656" transform="rotate(45 335.347 25.2842)" fill="#5C6CFF" fill-opacity="0.4"/>
<circle cx="335.347" cy="25.2842" r="7.35938" transform="rotate(45 335.347 25.2842)" fill="#5C6CFF"/>
<circle cx="324.408" cy="184.346" r="7.35938" fill="#5C6CFF"/>
<path d="M367.888 20.938V13.114H370.516C371.06 13.114 371.548 13.174 371.98 13.294C372.412 13.406 372.752 13.602 373 13.882C373.256 14.162 373.384 14.554 373.384 15.058C373.384 15.41 373.276 15.75 373.06 16.078C372.844 16.406 372.504 16.63 372.04 16.75V16.798C372.6 16.894 373.024 17.094 373.312 17.398C373.6 17.694 373.744 18.106 373.744 18.634C373.744 19.162 373.612 19.598 373.348 19.942C373.084 20.278 372.724 20.53 372.268 20.698C371.82 20.858 371.312 20.938 370.744 20.938H367.888ZM369.652 16.258H370.432C370.864 16.258 371.176 16.174 371.368 16.006C371.56 15.83 371.656 15.594 371.656 15.298C371.656 15.01 371.556 14.806 371.356 14.686C371.164 14.558 370.86 14.494 370.444 14.494H369.652V16.258ZM369.652 19.558H370.6C371.08 19.558 371.436 19.47 371.668 19.294C371.9 19.118 372.016 18.854 372.016 18.502C372.016 18.158 371.9 17.91 371.668 17.758C371.436 17.606 371.08 17.53 370.6 17.53H369.652V19.558ZM377.531 20.938V16.366H375.131V14.986H379.295V20.938H377.531ZM378.335 14.05C377.999 14.05 377.719 13.954 377.495 13.762C377.271 13.562 377.159 13.302 377.159 12.982C377.159 12.654 377.271 12.39 377.495 12.19C377.719 11.982 377.999 11.878 378.335 11.878C378.679 11.878 378.959 11.982 379.175 12.19C379.399 12.39 379.511 12.654 379.511 12.982C379.511 13.302 379.399 13.562 379.175 13.762C378.959 13.954 378.679 14.05 378.335 14.05ZM384.991 21.082C384.471 21.082 383.979 20.962 383.515 20.722C383.051 20.474 382.675 20.118 382.387 19.654C382.099 19.182 381.955 18.618 381.955 17.962C381.955 17.306 382.099 16.746 382.387 16.282C382.675 15.81 383.051 15.454 383.515 15.214C383.979 14.966 384.471 14.842 384.991 14.842C385.511 14.842 386.003 14.966 386.467 15.214C386.931 15.454 387.307 15.81 387.595 16.282C387.883 16.746 388.027 17.306 388.027 17.962C388.027 18.618 387.883 19.182 387.595 19.654C387.307 20.118 386.931 20.474 386.467 20.722C386.003 20.962 385.511 21.082 384.991 21.082ZM384.991 19.654C385.263 19.654 385.487 19.586 385.663 19.45C385.847 19.314 385.983 19.118 386.071 18.862C386.167 18.606 386.215 18.306 386.215 17.962C386.215 17.618 386.167 17.318 386.071 17.062C385.983 16.806 385.847 16.61 385.663 16.474C385.487 16.338 385.263 16.27 384.991 16.27C384.719 16.27 384.491 16.338 384.307 16.474C384.131 16.61 383.995 16.806 383.899 17.062C383.811 17.318 383.767 17.618 383.767 17.962C383.767 18.306 383.811 18.606 383.899 18.862C383.995 19.118 384.131 19.314 384.307 19.45C384.491 19.586 384.719 19.654 384.991 19.654ZM389.426 17.602V16.354H394.946V17.602H389.426ZM398.469 21.082C398.069 21.082 397.721 21.002 397.425 20.842C397.137 20.682 396.913 20.466 396.753 20.194C396.593 19.922 396.513 19.618 396.513 19.282C396.513 18.618 396.813 18.11 397.413 17.758C398.021 17.406 399.029 17.19 400.437 17.11C400.413 16.926 400.353 16.77 400.257 16.642C400.161 16.514 400.021 16.418 399.837 16.354C399.661 16.282 399.437 16.246 399.165 16.246C398.973 16.246 398.781 16.27 398.589 16.318C398.397 16.358 398.197 16.422 397.989 16.51C397.789 16.59 397.577 16.686 397.353 16.798L396.729 15.646C397.001 15.486 397.285 15.346 397.581 15.226C397.885 15.106 398.197 15.014 398.517 14.95C398.845 14.878 399.177 14.842 399.513 14.842C400.073 14.842 400.553 14.942 400.953 15.142C401.353 15.334 401.661 15.63 401.877 16.03C402.093 16.422 402.201 16.922 402.201 17.53V20.938H400.761L400.629 20.266H400.581C400.285 20.49 399.957 20.682 399.597 20.842C399.237 21.002 398.861 21.082 398.469 21.082ZM399.033 19.714C399.297 19.714 399.545 19.662 399.777 19.558C400.009 19.446 400.229 19.31 400.437 19.15V18.166C399.853 18.198 399.397 18.258 399.069 18.346C398.749 18.434 398.525 18.546 398.397 18.682C398.269 18.818 398.205 18.974 398.205 19.15C398.205 19.27 398.237 19.374 398.301 19.462C398.373 19.55 398.469 19.614 398.589 19.654C398.717 19.694 398.865 19.714 399.033 19.714ZM407.633 21.082C407.001 21.082 406.497 20.974 406.121 20.758C405.753 20.534 405.485 20.226 405.317 19.834C405.149 19.442 405.065 18.986 405.065 18.466V16.366H403.577V15.058L405.149 14.986L405.377 13.162H406.829V14.986H409.349V16.366H406.829V18.454C406.829 18.75 406.873 18.99 406.961 19.174C407.049 19.358 407.185 19.494 407.369 19.582C407.553 19.662 407.789 19.702 408.077 19.702C408.309 19.702 408.521 19.682 408.713 19.642C408.905 19.602 409.089 19.55 409.265 19.486L409.577 20.758C409.313 20.838 409.021 20.91 408.701 20.974C408.389 21.046 408.033 21.082 407.633 21.082ZM414.828 21.082C414.196 21.082 413.692 20.974 413.316 20.758C412.948 20.534 412.68 20.226 412.512 19.834C412.344 19.442 412.26 18.986 412.26 18.466V16.366H410.772V15.058L412.344 14.986L412.572 13.162H414.024V14.986H416.544V16.366H414.024V18.454C414.024 18.75 414.068 18.99 414.156 19.174C414.244 19.358 414.38 19.494 414.564 19.582C414.748 19.662 414.984 19.702 415.272 19.702C415.504 19.702 415.716 19.682 415.908 19.642C416.1 19.602 416.284 19.55 416.46 19.486L416.772 20.758C416.508 20.838 416.216 20.91 415.896 20.974C415.584 21.046 415.228 21.082 414.828 21.082ZM418.759 20.938V14.986H420.199L420.343 16.282H420.379C420.675 15.794 421.031 15.434 421.447 15.202C421.871 14.962 422.319 14.842 422.791 14.842C423.055 14.842 423.267 14.862 423.427 14.902C423.595 14.942 423.767 15.002 423.943 15.082L423.583 16.558C423.399 16.502 423.231 16.462 423.079 16.438C422.935 16.406 422.751 16.39 422.527 16.39C422.159 16.39 421.795 16.498 421.435 16.714C421.083 16.93 420.779 17.306 420.523 17.842V20.938H418.759ZM427.899 20.938V16.366H425.499V14.986H429.663V20.938H427.899ZM428.703 14.05C428.367 14.05 428.087 13.954 427.863 13.762C427.639 13.562 427.527 13.302 427.527 12.982C427.527 12.654 427.639 12.39 427.863 12.19C428.087 11.982 428.367 11.878 428.703 11.878C429.047 11.878 429.327 11.982 429.543 12.19C429.767 12.39 429.879 12.654 429.879 12.982C429.879 13.302 429.767 13.562 429.543 13.762C429.327 13.954 429.047 14.05 428.703 14.05ZM435.814 21.082C435.542 21.082 435.262 21.014 434.974 20.878C434.694 20.742 434.434 20.546 434.194 20.29H434.146L434.002 20.938H432.622V12.526H434.386V14.59L434.326 15.526H434.362C434.594 15.31 434.85 15.142 435.13 15.022C435.418 14.902 435.706 14.842 435.994 14.842C436.498 14.842 436.926 14.966 437.278 15.214C437.638 15.462 437.914 15.814 438.106 16.27C438.298 16.718 438.394 17.246 438.394 17.854C438.394 18.534 438.27 19.118 438.022 19.606C437.782 20.086 437.466 20.454 437.074 20.71C436.682 20.958 436.262 21.082 435.814 21.082ZM435.418 19.642C435.634 19.642 435.83 19.582 436.006 19.462C436.182 19.342 436.322 19.154 436.426 18.898C436.53 18.634 436.582 18.298 436.582 17.89C436.582 17.53 436.542 17.234 436.462 17.002C436.382 16.762 436.262 16.582 436.102 16.462C435.95 16.342 435.746 16.282 435.49 16.282C435.298 16.282 435.11 16.326 434.926 16.414C434.75 16.494 434.57 16.634 434.386 16.834V19.246C434.554 19.382 434.726 19.482 434.902 19.546C435.086 19.61 435.258 19.642 435.418 19.642ZM441.629 21.082C440.949 21.082 440.457 20.866 440.153 20.434C439.849 20.002 439.697 19.41 439.697 18.658V14.986H441.461V18.43C441.461 18.83 441.521 19.122 441.641 19.306C441.769 19.49 441.997 19.582 442.325 19.582C442.549 19.582 442.749 19.534 442.925 19.438C443.101 19.342 443.289 19.162 443.489 18.898V14.986H445.253V20.938H443.813L443.681 20.086H443.633C443.369 20.382 443.077 20.622 442.757 20.806C442.437 20.99 442.061 21.082 441.629 21.082ZM450.804 21.082C450.172 21.082 449.668 20.974 449.292 20.758C448.924 20.534 448.656 20.226 448.488 19.834C448.32 19.442 448.236 18.986 448.236 18.466V16.366H446.748V15.058L448.32 14.986L448.548 13.162H450V14.986H452.52V16.366H450V18.454C450 18.75 450.044 18.99 450.132 19.174C450.22 19.358 450.356 19.494 450.54 19.582C450.724 19.662 450.96 19.702 451.248 19.702C451.48 19.702 451.692 19.682 451.884 19.642C452.076 19.602 452.26 19.55 452.436 19.486L452.748 20.758C452.484 20.838 452.192 20.91 451.872 20.974C451.56 21.046 451.204 21.082 450.804 21.082ZM457.304 21.082C456.688 21.082 456.128 20.962 455.624 20.722C455.128 20.474 454.732 20.118 454.436 19.654C454.148 19.182 454.004 18.618 454.004 17.962C454.004 17.314 454.152 16.758 454.448 16.294C454.744 15.822 455.128 15.462 455.6 15.214C456.072 14.966 456.572 14.842 457.1 14.842C457.716 14.842 458.232 14.97 458.648 15.226C459.064 15.474 459.376 15.814 459.584 16.246C459.8 16.67 459.908 17.154 459.908 17.698C459.908 17.858 459.896 18.014 459.872 18.166C459.856 18.31 459.84 18.418 459.824 18.49H455.312V17.302H458.636L458.36 17.638C458.36 17.158 458.256 16.798 458.048 16.558C457.848 16.31 457.552 16.186 457.16 16.186C456.872 16.186 456.62 16.25 456.404 16.378C456.188 16.506 456.02 16.702 455.9 16.966C455.78 17.23 455.72 17.562 455.72 17.962C455.72 18.37 455.792 18.706 455.936 18.97C456.08 19.226 456.288 19.418 456.56 19.546C456.832 19.674 457.16 19.738 457.544 19.738C457.816 19.738 458.072 19.702 458.312 19.63C458.56 19.558 458.816 19.454 459.08 19.318L459.668 20.386C459.324 20.602 458.944 20.774 458.528 20.902C458.112 21.022 457.704 21.082 457.304 21.082ZM463.611 21.082C462.859 21.082 462.251 20.806 461.787 20.254C461.331 19.694 461.103 18.93 461.103 17.962C461.103 17.314 461.223 16.758 461.463 16.294C461.711 15.83 462.031 15.474 462.423 15.226C462.815 14.97 463.223 14.842 463.647 14.842C463.975 14.842 464.259 14.898 464.499 15.01C464.739 15.122 464.955 15.278 465.147 15.478H465.195L465.111 14.554V12.526H466.875V20.938H465.435L465.303 20.326H465.267C465.051 20.542 464.795 20.722 464.499 20.866C464.211 21.01 463.915 21.082 463.611 21.082ZM464.067 19.642C464.267 19.642 464.451 19.602 464.619 19.522C464.795 19.434 464.959 19.29 465.111 19.09V16.678C464.951 16.534 464.787 16.434 464.619 16.378C464.459 16.314 464.291 16.282 464.115 16.282C463.899 16.282 463.699 16.342 463.515 16.462C463.331 16.582 463.183 16.766 463.071 17.014C462.967 17.254 462.915 17.562 462.915 17.938C462.915 18.522 463.015 18.954 463.215 19.234C463.415 19.506 463.699 19.642 464.067 19.642ZM371.116 36.082C370.492 36.082 369.928 35.962 369.424 35.722C368.928 35.474 368.532 35.118 368.236 34.654C367.948 34.182 367.804 33.618 367.804 32.962C367.804 32.306 367.964 31.746 368.284 31.282C368.604 30.81 369.024 30.454 369.544 30.214C370.072 29.966 370.64 29.842 371.248 29.842C371.72 29.842 372.148 29.918 372.532 30.07C372.916 30.214 373.232 30.406 373.48 30.646L372.664 31.738C372.432 31.578 372.208 31.462 371.992 31.39C371.784 31.31 371.568 31.27 371.344 31.27C371.008 31.27 370.708 31.338 370.444 31.474C370.18 31.61 369.976 31.806 369.832 32.062C369.688 32.318 369.616 32.618 369.616 32.962C369.616 33.306 369.684 33.606 369.82 33.862C369.964 34.118 370.16 34.314 370.408 34.45C370.664 34.586 370.956 34.654 371.284 34.654C371.596 34.654 371.88 34.598 372.136 34.486C372.4 34.374 372.64 34.242 372.856 34.09L373.564 35.206C373.212 35.502 372.816 35.722 372.376 35.866C371.944 36.01 371.524 36.082 371.116 36.082ZM377.795 36.082C377.275 36.082 376.783 35.962 376.319 35.722C375.855 35.474 375.479 35.118 375.191 34.654C374.903 34.182 374.759 33.618 374.759 32.962C374.759 32.306 374.903 31.746 375.191 31.282C375.479 30.81 375.855 30.454 376.319 30.214C376.783 29.966 377.275 29.842 377.795 29.842C378.315 29.842 378.807 29.966 379.271 30.214C379.735 30.454 380.111 30.81 380.399 31.282C380.687 31.746 380.831 32.306 380.831 32.962C380.831 33.618 380.687 34.182 380.399 34.654C380.111 35.118 379.735 35.474 379.271 35.722C378.807 35.962 378.315 36.082 377.795 36.082ZM377.795 34.654C378.067 34.654 378.291 34.586 378.467 34.45C378.651 34.314 378.787 34.118 378.875 33.862C378.971 33.606 379.019 33.306 379.019 32.962C379.019 32.618 378.971 32.318 378.875 32.062C378.787 31.806 378.651 31.61 378.467 31.474C378.291 31.338 378.067 31.27 377.795 31.27C377.523 31.27 377.295 31.338 377.111 31.474C376.935 31.61 376.799 31.806 376.703 32.062C376.615 32.318 376.571 32.618 376.571 32.962C376.571 33.306 376.615 33.606 376.703 33.862C376.799 34.118 376.935 34.314 377.111 34.45C377.295 34.586 377.523 34.654 377.795 34.654ZM381.811 35.938V29.986H383.143L383.263 30.718H383.311C383.423 30.478 383.579 30.274 383.779 30.106C383.979 29.93 384.251 29.842 384.595 29.842C384.851 29.842 385.071 29.926 385.255 30.094C385.439 30.254 385.563 30.494 385.627 30.814C385.739 30.542 385.899 30.314 386.107 30.13C386.323 29.938 386.603 29.842 386.947 29.842C387.371 29.842 387.699 30.014 387.931 30.358C388.163 30.702 388.279 31.17 388.279 31.762V35.938H386.599V31.882C386.599 31.522 386.491 31.342 386.275 31.342C386.163 31.342 386.063 31.39 385.975 31.486C385.895 31.574 385.815 31.718 385.735 31.918V35.938H384.355V31.882C384.355 31.698 384.327 31.562 384.271 31.474C384.215 31.386 384.131 31.342 384.019 31.342C383.907 31.342 383.811 31.39 383.731 31.486C383.651 31.574 383.571 31.718 383.491 31.918V35.938H381.811ZM389.45 38.146V29.986H390.89L391.022 30.586H391.058C391.306 30.37 391.582 30.194 391.886 30.058C392.198 29.914 392.514 29.842 392.834 29.842C393.33 29.842 393.754 29.966 394.106 30.214C394.466 30.462 394.742 30.814 394.934 31.27C395.126 31.726 395.222 32.258 395.222 32.866C395.222 33.546 395.098 34.126 394.85 34.606C394.61 35.086 394.294 35.454 393.902 35.71C393.51 35.958 393.09 36.082 392.642 36.082C392.378 36.082 392.118 36.026 391.862 35.914C391.614 35.802 391.386 35.642 391.178 35.434H391.13L391.214 36.406V38.146H389.45ZM392.234 34.642C392.458 34.642 392.658 34.582 392.834 34.462C393.01 34.342 393.15 34.154 393.254 33.898C393.358 33.634 393.41 33.298 393.41 32.89C393.41 32.53 393.37 32.234 393.29 32.002C393.21 31.762 393.09 31.582 392.93 31.462C392.778 31.342 392.574 31.282 392.318 31.282C392.126 31.282 391.938 31.326 391.754 31.414C391.578 31.494 391.398 31.634 391.214 31.834V34.246C391.382 34.382 391.554 34.482 391.73 34.546C391.914 34.61 392.082 34.642 392.234 34.642ZM399.381 36.082C398.861 36.082 398.369 35.962 397.905 35.722C397.441 35.474 397.065 35.118 396.777 34.654C396.489 34.182 396.345 33.618 396.345 32.962C396.345 32.306 396.489 31.746 396.777 31.282C397.065 30.81 397.441 30.454 397.905 30.214C398.369 29.966 398.861 29.842 399.381 29.842C399.901 29.842 400.393 29.966 400.857 30.214C401.321 30.454 401.697 30.81 401.985 31.282C402.273 31.746 402.417 32.306 402.417 32.962C402.417 33.618 402.273 34.182 401.985 34.654C401.697 35.118 401.321 35.474 400.857 35.722C400.393 35.962 399.901 36.082 399.381 36.082ZM399.381 34.654C399.653 34.654 399.877 34.586 400.053 34.45C400.237 34.314 400.373 34.118 400.461 33.862C400.557 33.606 400.605 33.306 400.605 32.962C400.605 32.618 400.557 32.318 400.461 32.062C400.373 31.806 400.237 31.61 400.053 31.474C399.877 31.338 399.653 31.27 399.381 31.27C399.109 31.27 398.881 31.338 398.697 31.474C398.521 31.61 398.385 31.806 398.289 32.062C398.201 32.318 398.157 32.618 398.157 32.962C398.157 33.306 398.201 33.606 398.289 33.862C398.385 34.118 398.521 34.314 398.697 34.45C398.881 34.586 399.109 34.654 399.381 34.654ZM403.841 35.938V29.986H405.281L405.413 30.778H405.461C405.717 30.522 406.009 30.302 406.337 30.118C406.673 29.934 407.065 29.842 407.513 29.842C408.185 29.842 408.677 30.058 408.989 30.49C409.301 30.922 409.457 31.514 409.457 32.266V35.938H407.693V32.494C407.693 32.094 407.625 31.802 407.489 31.618C407.361 31.434 407.137 31.342 406.817 31.342C406.577 31.342 406.365 31.398 406.181 31.51C406.005 31.614 405.813 31.766 405.605 31.966V35.938H403.841ZM414.132 36.082C413.516 36.082 412.956 35.962 412.452 35.722C411.956 35.474 411.56 35.118 411.264 34.654C410.976 34.182 410.832 33.618 410.832 32.962C410.832 32.314 410.98 31.758 411.276 31.294C411.572 30.822 411.956 30.462 412.428 30.214C412.9 29.966 413.4 29.842 413.928 29.842C414.544 29.842 415.06 29.97 415.476 30.226C415.892 30.474 416.204 30.814 416.412 31.246C416.628 31.67 416.736 32.154 416.736 32.698C416.736 32.858 416.724 33.014 416.7 33.166C416.684 33.31 416.668 33.418 416.652 33.49H412.14V32.302H415.464L415.188 32.638C415.188 32.158 415.084 31.798 414.876 31.558C414.676 31.31 414.38 31.186 413.988 31.186C413.7 31.186 413.448 31.25 413.232 31.378C413.016 31.506 412.848 31.702 412.728 31.966C412.608 32.23 412.548 32.562 412.548 32.962C412.548 33.37 412.62 33.706 412.764 33.97C412.908 34.226 413.116 34.418 413.388 34.546C413.66 34.674 413.988 34.738 414.372 34.738C414.644 34.738 414.9 34.702 415.14 34.63C415.388 34.558 415.644 34.454 415.908 34.318L416.496 35.386C416.152 35.602 415.772 35.774 415.356 35.902C414.94 36.022 414.532 36.082 414.132 36.082ZM418.231 35.938V29.986H419.671L419.803 30.778H419.851C420.107 30.522 420.399 30.302 420.727 30.118C421.063 29.934 421.455 29.842 421.903 29.842C422.575 29.842 423.067 30.058 423.379 30.49C423.691 30.922 423.847 31.514 423.847 32.266V35.938H422.083V32.494C422.083 32.094 422.015 31.802 421.879 31.618C421.751 31.434 421.527 31.342 421.207 31.342C420.967 31.342 420.755 31.398 420.571 31.51C420.395 31.614 420.203 31.766 419.995 31.966V35.938H418.231ZM429.219 36.082C428.587 36.082 428.083 35.974 427.707 35.758C427.339 35.534 427.071 35.226 426.903 34.834C426.735 34.442 426.651 33.986 426.651 33.466V31.366H425.163V30.058L426.735 29.986L426.963 28.162H428.415V29.986H430.935V31.366H428.415V33.454C428.415 33.75 428.459 33.99 428.547 34.174C428.635 34.358 428.771 34.494 428.955 34.582C429.139 34.662 429.375 34.702 429.663 34.702C429.895 34.702 430.107 34.682 430.299 34.642C430.491 34.602 430.675 34.55 430.851 34.486L431.163 35.758C430.899 35.838 430.607 35.91 430.287 35.974C429.975 36.046 429.619 36.082 429.219 36.082ZM435.31 36.082C434.782 36.082 434.258 35.994 433.738 35.818C433.218 35.634 432.77 35.418 432.394 35.17L433.15 34.066C433.51 34.298 433.89 34.474 434.29 34.594C434.698 34.714 435.118 34.774 435.55 34.774C435.878 34.774 436.118 34.726 436.27 34.63C436.422 34.526 436.498 34.406 436.498 34.27C436.498 34.182 436.474 34.11 436.426 34.054C436.386 33.99 436.31 33.934 436.198 33.886C436.094 33.83 435.946 33.778 435.754 33.73C435.57 33.682 435.33 33.626 435.034 33.562C434.226 33.386 433.646 33.146 433.294 32.842C432.942 32.538 432.766 32.158 432.766 31.702C432.766 31.142 433.01 30.694 433.498 30.358C433.986 30.014 434.654 29.842 435.502 29.842C436.038 29.842 436.522 29.93 436.954 30.106C437.394 30.274 437.77 30.458 438.082 30.658L437.29 31.714C436.994 31.53 436.678 31.39 436.342 31.294C436.006 31.198 435.674 31.15 435.346 31.15C435.162 31.15 435.01 31.17 434.89 31.21C434.77 31.242 434.678 31.298 434.614 31.378C434.55 31.45 434.518 31.53 434.518 31.618C434.518 31.778 434.622 31.898 434.83 31.978C435.038 32.05 435.394 32.142 435.898 32.254C436.506 32.39 436.982 32.546 437.326 32.722C437.67 32.898 437.906 33.102 438.034 33.334C438.17 33.558 438.238 33.834 438.238 34.162C438.238 34.522 438.126 34.846 437.902 35.134C437.686 35.422 437.358 35.654 436.918 35.83C436.486 35.998 435.95 36.082 435.31 36.082Z" fill="#6D758F"/>
<path d="M267.01 216.938V209.114H268.774V212.138H270.91V209.114H272.674V216.938H270.91V213.674H268.774V216.938H267.01ZM276.774 216.938V212.366H274.374V210.986H278.538V216.938H276.774ZM277.578 210.05C277.242 210.05 276.962 209.954 276.738 209.762C276.514 209.562 276.402 209.302 276.402 208.982C276.402 208.654 276.514 208.39 276.738 208.19C276.962 207.982 277.242 207.878 277.578 207.878C277.922 207.878 278.202 207.982 278.418 208.19C278.642 208.39 278.754 208.654 278.754 208.982C278.754 209.302 278.642 209.562 278.418 209.762C278.202 209.954 277.922 210.05 277.578 210.05ZM281.473 213.602V212.354H286.993V213.602H281.473ZM289.112 216.938V209.114H290.876V215.45H294.356V216.938H289.112ZM298.623 217.082C298.103 217.082 297.611 216.962 297.147 216.722C296.683 216.474 296.307 216.118 296.019 215.654C295.731 215.182 295.587 214.618 295.587 213.962C295.587 213.306 295.731 212.746 296.019 212.282C296.307 211.81 296.683 211.454 297.147 211.214C297.611 210.966 298.103 210.842 298.623 210.842C299.143 210.842 299.635 210.966 300.099 211.214C300.563 211.454 300.939 211.81 301.227 212.282C301.515 212.746 301.659 213.306 301.659 213.962C301.659 214.618 301.515 215.182 301.227 215.654C300.939 216.118 300.563 216.474 300.099 216.722C299.635 216.962 299.143 217.082 298.623 217.082ZM298.623 215.654C298.895 215.654 299.119 215.586 299.295 215.45C299.479 215.314 299.615 215.118 299.703 214.862C299.799 214.606 299.847 214.306 299.847 213.962C299.847 213.618 299.799 213.318 299.703 213.062C299.615 212.806 299.479 212.61 299.295 212.474C299.119 212.338 298.895 212.27 298.623 212.27C298.351 212.27 298.123 212.338 297.939 212.474C297.763 212.61 297.627 212.806 297.531 213.062C297.443 213.318 297.399 213.618 297.399 213.962C297.399 214.306 297.443 214.606 297.531 214.862C297.627 215.118 297.763 215.314 297.939 215.45C298.123 215.586 298.351 215.654 298.623 215.654ZM304.775 216.938V210.83C304.775 210.374 304.867 209.962 305.051 209.594C305.243 209.218 305.531 208.922 305.915 208.706C306.307 208.49 306.815 208.382 307.439 208.382C307.783 208.382 308.107 208.418 308.411 208.49C308.715 208.554 308.991 208.626 309.239 208.706L308.903 210.002C308.711 209.93 308.511 209.874 308.303 209.834C308.103 209.794 307.887 209.774 307.655 209.774C307.279 209.774 306.999 209.858 306.815 210.026C306.631 210.194 306.539 210.458 306.539 210.818V216.938H304.775ZM303.203 212.366V211.058L304.835 210.986H308.591V212.366H303.203ZM314.07 217.082C313.438 217.082 312.934 216.974 312.558 216.758C312.19 216.534 311.922 216.226 311.754 215.834C311.586 215.442 311.502 214.986 311.502 214.466V212.366H310.014V211.058L311.586 210.986L311.814 209.162H313.266V210.986H315.786V212.366H313.266V214.454C313.266 214.75 313.31 214.99 313.398 215.174C313.486 215.358 313.622 215.494 313.806 215.582C313.99 215.662 314.226 215.702 314.514 215.702C314.746 215.702 314.958 215.682 315.15 215.642C315.342 215.602 315.526 215.55 315.702 215.486L316.014 216.758C315.75 216.838 315.458 216.91 315.138 216.974C314.826 217.046 314.47 217.082 314.07 217.082ZM318.469 212.426L318.373 211.742C318.845 211.39 319.253 211.078 319.597 210.806C319.941 210.526 320.205 210.274 320.389 210.05C320.573 209.818 320.665 209.606 320.665 209.414C320.665 209.182 320.593 209.002 320.449 208.874C320.313 208.738 320.117 208.67 319.861 208.67C319.677 208.67 319.501 208.718 319.333 208.814C319.173 208.91 319.025 209.054 318.889 209.246L318.157 208.574C318.405 208.246 318.689 208.002 319.009 207.842C319.329 207.682 319.681 207.602 320.065 207.602C320.617 207.602 321.061 207.742 321.397 208.022C321.741 208.302 321.913 208.69 321.913 209.186C321.913 209.442 321.849 209.686 321.721 209.918C321.601 210.142 321.429 210.37 321.205 210.602C320.981 210.834 320.721 211.082 320.425 211.346H322.081V212.426H318.469ZM324.597 212.594V209.87H323.649V208.826H326.685V209.87H325.749V212.594H324.597ZM327.105 212.594V208.826H328.341L328.749 209.954L329.001 210.806H329.049L329.289 209.954L329.697 208.826H330.933V212.594H329.925V211.442L330.057 210.062H330.009L329.373 211.838H328.677L328.029 210.062H327.981L328.113 211.442V212.594H327.105ZM245.496 231.938V224.114H248.268C248.82 224.114 249.324 224.19 249.78 224.342C250.236 224.486 250.6 224.738 250.872 225.098C251.152 225.45 251.292 225.934 251.292 226.55C251.292 227.15 251.152 227.638 250.872 228.014C250.6 228.39 250.236 228.67 249.78 228.854C249.324 229.03 248.82 229.118 248.268 229.118H247.26V231.938H245.496ZM247.26 227.714H248.124C248.588 227.714 248.94 227.618 249.18 227.426C249.428 227.226 249.552 226.934 249.552 226.55C249.552 226.166 249.428 225.898 249.18 225.746C248.94 225.594 248.588 225.518 248.124 225.518H247.26V227.714ZM247.944 228.662L249.168 227.522L251.664 231.938H249.684L247.944 228.662ZM252.752 231.938V224.114H255.524C256.092 224.114 256.604 224.194 257.06 224.354C257.524 224.506 257.892 224.766 258.164 225.134C258.444 225.502 258.584 226.002 258.584 226.634C258.584 227.242 258.444 227.742 258.164 228.134C257.884 228.526 257.512 228.818 257.048 229.01C256.584 229.194 256.076 229.286 255.524 229.286H254.516V231.938H252.752ZM254.516 227.882H255.416C255.904 227.882 256.264 227.774 256.496 227.558C256.736 227.342 256.856 227.034 256.856 226.634C256.856 226.218 256.732 225.93 256.484 225.77C256.244 225.602 255.888 225.518 255.416 225.518H254.516V227.882ZM260.151 231.938V224.114H265.335V225.602H261.927V227.174H264.819V228.65H261.927V230.45H265.455V231.938H260.151ZM268.954 231.938V225.602H266.614V224.114H273.07V225.602H270.73V231.938H268.954ZM281.521 231.938V224.114H284.149C284.693 224.114 285.181 224.174 285.613 224.294C286.045 224.406 286.385 224.602 286.633 224.882C286.889 225.162 287.017 225.554 287.017 226.058C287.017 226.41 286.909 226.75 286.693 227.078C286.477 227.406 286.137 227.63 285.673 227.75V227.798C286.233 227.894 286.657 228.094 286.945 228.398C287.233 228.694 287.377 229.106 287.377 229.634C287.377 230.162 287.245 230.598 286.981 230.942C286.717 231.278 286.357 231.53 285.901 231.698C285.453 231.858 284.945 231.938 284.377 231.938H281.521ZM283.285 227.258H284.065C284.497 227.258 284.809 227.174 285.001 227.006C285.193 226.83 285.289 226.594 285.289 226.298C285.289 226.01 285.189 225.806 284.989 225.686C284.797 225.558 284.493 225.494 284.077 225.494H283.285V227.258ZM283.285 230.558H284.233C284.713 230.558 285.069 230.47 285.301 230.294C285.533 230.118 285.649 229.854 285.649 229.502C285.649 229.158 285.533 228.91 285.301 228.758C285.069 228.606 284.713 228.53 284.233 228.53H283.285V230.558ZM290.516 232.082C290.116 232.082 289.768 232.002 289.472 231.842C289.184 231.682 288.96 231.466 288.8 231.194C288.64 230.922 288.56 230.618 288.56 230.282C288.56 229.618 288.86 229.11 289.46 228.758C290.068 228.406 291.076 228.19 292.484 228.11C292.46 227.926 292.4 227.77 292.304 227.642C292.208 227.514 292.068 227.418 291.884 227.354C291.708 227.282 291.484 227.246 291.212 227.246C291.02 227.246 290.828 227.27 290.636 227.318C290.444 227.358 290.244 227.422 290.036 227.51C289.836 227.59 289.624 227.686 289.4 227.798L288.776 226.646C289.048 226.486 289.332 226.346 289.628 226.226C289.932 226.106 290.244 226.014 290.564 225.95C290.892 225.878 291.224 225.842 291.56 225.842C292.12 225.842 292.6 225.942 293 226.142C293.4 226.334 293.708 226.63 293.924 227.03C294.14 227.422 294.248 227.922 294.248 228.53V231.938H292.808L292.676 231.266H292.628C292.332 231.49 292.004 231.682 291.644 231.842C291.284 232.002 290.908 232.082 290.516 232.082ZM291.08 230.714C291.344 230.714 291.592 230.662 291.824 230.558C292.056 230.446 292.276 230.31 292.484 230.15V229.166C291.9 229.198 291.444 229.258 291.116 229.346C290.796 229.434 290.572 229.546 290.444 229.682C290.316 229.818 290.252 229.974 290.252 230.15C290.252 230.27 290.284 230.374 290.348 230.462C290.42 230.55 290.516 230.614 290.636 230.654C290.764 230.694 290.912 230.714 291.08 230.714ZM299.139 232.082C298.515 232.082 297.951 231.962 297.447 231.722C296.951 231.474 296.555 231.118 296.259 230.654C295.971 230.182 295.827 229.618 295.827 228.962C295.827 228.306 295.987 227.746 296.307 227.282C296.627 226.81 297.047 226.454 297.567 226.214C298.095 225.966 298.663 225.842 299.271 225.842C299.743 225.842 300.171 225.918 300.555 226.07C300.939 226.214 301.255 226.406 301.503 226.646L300.687 227.738C300.455 227.578 300.231 227.462 300.015 227.39C299.807 227.31 299.591 227.27 299.367 227.27C299.031 227.27 298.731 227.338 298.467 227.474C298.203 227.61 297.999 227.806 297.855 228.062C297.711 228.318 297.639 228.618 297.639 228.962C297.639 229.306 297.707 229.606 297.843 229.862C297.987 230.118 298.183 230.314 298.431 230.45C298.687 230.586 298.979 230.654 299.307 230.654C299.619 230.654 299.903 230.598 300.159 230.486C300.423 230.374 300.663 230.242 300.879 230.09L301.587 231.206C301.235 231.502 300.839 231.722 300.399 231.866C299.967 232.01 299.547 232.082 299.139 232.082ZM303.131 231.938V223.526H304.895V228.386H304.943L307.127 225.986H309.059L304.895 230.438V231.938H303.131ZM307.331 231.938L305.603 229.238L306.611 228.146L309.239 231.938H307.331ZM312.75 231.938V227.366H310.35V225.986H314.514V231.938H312.75ZM313.554 225.05C313.218 225.05 312.938 224.954 312.714 224.762C312.49 224.562 312.378 224.302 312.378 223.982C312.378 223.654 312.49 223.39 312.714 223.19C312.938 222.982 313.218 222.878 313.554 222.878C313.898 222.878 314.178 222.982 314.394 223.19C314.618 223.39 314.73 223.654 314.73 223.982C314.73 224.302 314.618 224.562 314.394 224.762C314.178 224.954 313.898 225.05 313.554 225.05ZM317.473 231.938V225.986H318.913L319.045 226.778H319.093C319.349 226.522 319.641 226.302 319.969 226.118C320.305 225.934 320.697 225.842 321.145 225.842C321.817 225.842 322.309 226.058 322.621 226.49C322.933 226.922 323.089 227.514 323.089 228.266V231.938H321.325V228.494C321.325 228.094 321.257 227.802 321.121 227.618C320.993 227.434 320.769 227.342 320.449 227.342C320.209 227.342 319.997 227.398 319.813 227.51C319.637 227.614 319.445 227.766 319.237 227.966V231.938H317.473ZM327.129 234.47C326.609 234.47 326.145 234.414 325.737 234.302C325.337 234.198 325.017 234.034 324.777 233.81C324.545 233.586 324.429 233.298 324.429 232.946C324.429 232.706 324.505 232.486 324.657 232.286C324.817 232.086 325.049 231.91 325.353 231.758V231.71C325.185 231.598 325.041 231.462 324.921 231.302C324.809 231.142 324.753 230.938 324.753 230.69C324.753 230.49 324.817 230.29 324.945 230.09C325.081 229.89 325.253 229.718 325.461 229.574V229.526C325.245 229.382 325.061 229.178 324.909 228.914C324.757 228.65 324.681 228.346 324.681 228.002C324.681 227.522 324.797 227.122 325.029 226.802C325.269 226.482 325.581 226.242 325.965 226.082C326.357 225.922 326.777 225.842 327.225 225.842C327.593 225.842 327.921 225.89 328.209 225.986H330.621V227.282H329.421C329.493 227.37 329.553 227.486 329.601 227.63C329.657 227.766 329.685 227.91 329.685 228.062C329.685 228.518 329.573 228.894 329.349 229.19C329.133 229.478 328.841 229.694 328.473 229.838C328.105 229.982 327.689 230.054 327.225 230.054C327.113 230.054 326.985 230.046 326.841 230.03C326.697 230.006 326.553 229.974 326.409 229.934C326.313 229.998 326.245 230.062 326.205 230.126C326.165 230.19 326.145 230.274 326.145 230.378C326.145 230.53 326.225 230.642 326.385 230.714C326.553 230.786 326.809 230.822 327.153 230.822H328.257C329.041 230.822 329.637 230.938 330.045 231.17C330.461 231.402 330.669 231.786 330.669 232.322C330.669 232.738 330.525 233.106 330.237 233.426C329.949 233.754 329.537 234.01 329.001 234.194C328.473 234.378 327.849 234.47 327.129 234.47ZM327.225 228.986C327.393 228.986 327.545 228.95 327.681 228.878C327.817 228.806 327.925 228.698 328.005 228.554C328.085 228.402 328.125 228.218 328.125 228.002C328.125 227.794 328.085 227.618 328.005 227.474C327.925 227.33 327.817 227.222 327.681 227.15C327.545 227.07 327.393 227.03 327.225 227.03C327.065 227.03 326.917 227.07 326.781 227.15C326.645 227.222 326.537 227.33 326.457 227.474C326.377 227.618 326.337 227.794 326.337 228.002C326.337 228.218 326.377 228.402 326.457 228.554C326.537 228.698 326.645 228.806 326.781 228.878C326.917 228.95 327.065 228.986 327.225 228.986ZM327.381 233.354C327.701 233.354 327.981 233.322 328.221 233.258C328.461 233.194 328.649 233.106 328.785 232.994C328.921 232.89 328.989 232.77 328.989 232.634C328.989 232.434 328.901 232.306 328.725 232.25C328.549 232.202 328.289 232.178 327.945 232.178H327.201C326.985 232.178 326.805 232.17 326.661 232.154C326.525 232.138 326.401 232.118 326.289 232.094C326.137 232.19 326.029 232.282 325.965 232.37C325.901 232.466 325.869 232.57 325.869 232.682C325.869 232.898 326.005 233.062 326.277 233.174C326.549 233.294 326.917 233.354 327.381 233.354Z" fill="#6D758F"/>
</svg>
